{"glyphs":{"0":{"ha":928,"x_min":63,"x_max":865,"o":"m 63 482 q 83 283 63 374 q 151 124 104 193 q 275 16 197 54 q 464 -22 353 -22 q 653 16 575 -22 q 777 123 731 54 q 844 283 824 192 q 865 482 865 374 q 844 681 865 590 q 777 841 824 772 q 653 948 731 910 q 464 986 575 986 q 275 948 353 986 q 151 841 197 910 q 83 681 104 772 q 63 482 63 590 m 718 482 q 710 362 718 424 q 677 238 703 300 q 599 135 651 176 q 464 94 547 94 q 328 135 381 94 q 251 238 276 176 q 217 362 225 300 q 210 482 210 424 q 217 602 210 540 q 251 726 225 664 q 328 828 276 788 q 464 869 381 869 q 599 828 547 869 q 677 726 651 788 q 710 602 703 664 q 718 482 718 540 z "},"1":{"ha":617,"x_min":-14,"x_max":424,"o":"m 276 0 l 424 0 l 424 992 l 308 992 q 294 931 306 961 q 251 874 282 901 q 164 828 221 846 q 19 810 107 810 l -14 810 l -14 701 l 276 701 l 276 0 z "},"2":{"ha":928,"x_min":46,"x_max":810,"o":"m 203 638 q 267 807 206 744 q 454 869 329 869 q 605 823 547 869 q 663 678 663 776 q 643 597 663 632 q 591 533 624 561 q 520 484 558 506 q 414 428 482 463 q 276 353 332 386 q 169 272 219 319 q 85 156 118 224 q 46 0 51 89 l 810 0 l 810 128 l 225 128 q 319 231 256 189 q 492 325 382 274 q 619 391 571 364 q 713 458 668 418 q 783 551 757 497 q 810 676 810 606 q 718 901 810 815 q 446 986 626 986 q 159 892 254 986 q 64 638 64 797 l 203 638 z "},"3":{"ha":928,"x_min":40,"x_max":828,"o":"m 356 449 q 372 450 358 449 q 438 451 403 451 q 614 406 547 451 q 681 278 681 361 q 617 144 681 194 q 438 94 553 94 q 251 142 318 94 q 179 306 185 189 l 40 306 q 87 123 40 192 q 201 23 133 54 q 330 -15 269 -8 q 450 -22 390 -22 q 617 2 544 -22 q 736 69 689 26 q 806 167 783 111 q 828 288 828 224 q 776 442 828 379 q 640 519 724 504 l 640 522 q 748 595 711 540 q 785 721 785 650 q 764 821 785 774 q 699 906 743 868 q 588 965 656 943 q 431 986 521 986 q 172 906 269 986 q 65 667 74 826 l 204 667 q 264 817 210 765 q 426 869 318 869 q 506 861 468 869 q 573 835 543 853 q 620 785 603 817 q 638 710 638 754 q 589 606 638 643 q 449 568 540 568 q 356 569 374 568 l 356 449 z "},"4":{"ha":928,"x_min":50,"x_max":865,"o":"m 557 351 l 189 351 l 554 797 l 557 797 l 557 351 m 557 0 l 696 0 l 696 235 l 865 235 l 865 351 l 696 351 l 696 992 l 574 992 l 50 363 l 50 235 l 557 235 l 557 0 z "},"5":{"ha":928,"x_min":61,"x_max":846,"o":"m 92 443 l 225 435 q 324 505 264 483 q 456 526 385 526 q 631 474 564 526 q 699 315 699 421 q 678 210 699 253 q 623 141 658 167 q 544 105 588 115 q 451 94 501 94 q 283 133 340 94 q 204 258 226 171 l 61 258 q 92 148 64 199 q 169 58 119 97 q 289 -1 219 19 q 440 -22 358 -22 q 737 71 628 -22 q 846 321 846 164 q 813 473 846 410 q 726 574 781 536 q 606 627 671 611 q 475 643 542 643 q 238 574 340 643 l 285 836 l 774 836 l 774 964 l 181 964 l 92 443 z "},"6":{"ha":928,"x_min":75,"x_max":872,"o":"m 725 311 q 664 156 725 217 q 482 94 603 94 q 299 156 361 94 q 238 311 238 217 q 299 467 238 406 q 482 528 361 528 q 664 467 603 528 q 725 311 725 406 m 839 736 q 795 857 829 807 q 713 935 761 907 q 614 974 665 963 q 514 986 563 986 q 374 972 442 986 q 236 908 306 958 q 121 748 167 857 q 75 463 75 639 q 174 102 75 226 q 488 -22 274 -22 q 662 8 588 -22 q 783 89 736 39 q 851 197 829 139 q 872 314 872 256 q 840 469 872 404 q 753 572 807 533 q 633 627 699 610 q 500 644 568 644 q 324 607 401 644 q 217 517 247 569 l 214 517 q 244 692 219 622 q 306 800 268 761 q 393 854 343 839 q 507 869 443 869 q 635 835 582 869 q 700 736 689 800 l 839 736 z "},"7":{"ha":824,"x_min":24,"x_max":772,"o":"m 24 828 l 635 828 q 372 441 486 657 q 201 0 257 225 l 356 0 q 509 438 408 240 q 772 842 610 636 l 772 964 l 24 964 l 24 828 z "},"8":{"ha":928,"x_min":65,"x_max":863,"o":"m 65 286 q 83 181 65 233 q 146 83 101 129 q 269 7 190 36 q 464 -22 349 -22 q 658 7 579 -22 q 782 83 738 36 q 844 181 826 129 q 863 286 863 233 q 808 447 863 383 q 665 526 754 511 l 665 529 q 781 610 742 557 q 819 732 819 663 q 726 919 819 853 q 465 986 633 986 q 203 920 297 986 q 110 732 110 854 q 146 609 110 658 q 265 529 182 560 l 265 526 q 207 506 240 522 q 141 460 174 489 q 87 387 108 431 q 65 286 65 343 m 672 725 q 619 623 672 665 q 465 581 567 581 q 310 623 364 581 q 257 725 257 665 q 310 826 257 783 q 465 869 364 869 q 619 827 567 869 q 672 725 672 785 m 715 279 q 653 147 715 199 q 464 94 592 94 q 274 147 336 94 q 213 279 213 199 q 274 412 213 360 q 464 464 336 464 q 653 412 592 464 q 715 279 715 360 z "},"9":{"ha":928,"x_min":56,"x_max":853,"o":"m 690 653 q 628 497 690 558 q 446 436 567 436 q 265 497 326 436 q 203 653 203 558 q 265 808 203 747 q 446 869 326 869 q 628 808 567 869 q 690 653 690 747 m 89 228 q 133 108 99 157 q 215 30 167 58 q 314 -10 263 1 q 414 -22 365 -22 q 554 -8 486 -22 q 692 56 622 6 q 807 216 761 107 q 853 501 853 325 q 753 862 853 738 q 440 986 654 986 q 267 956 340 986 q 147 875 193 925 q 78 767 100 825 q 56 650 56 708 q 88 495 56 560 q 175 392 121 431 q 294 337 229 354 q 428 319 360 319 q 603 357 526 319 q 711 447 681 394 l 714 447 q 685 273 708 343 q 623 165 661 203 q 535 110 585 126 q 421 94 485 94 q 292 129 346 94 q 228 228 239 164 l 89 228 z "}," ":{"ha":697,"x_min":-1,"x_max":693,"o":"m -1 0 l 693 0 l 693 694 l -1 694 l -1 0 m 13 14 l 13 681 l 679 681 l 679 14 l 13 14 z "}," ":{"ha":464,"x_min":0,"x_max":0,"o":""},"!":{"ha":464,"x_min":146,"x_max":318,"o":"m 146 0 l 318 0 l 318 161 l 146 161 l 146 0 m 192 261 l 272 261 l 310 732 l 310 992 l 154 992 l 154 732 l 192 261 z "},"\"":{"ha":668,"x_min":143,"x_max":525,"o":"m 408 618 l 525 618 l 525 992 l 408 992 l 408 618 m 143 618 l 260 618 l 260 992 l 143 992 l 143 618 z "},"#":{"ha":928,"x_min":126,"x_max":801,"o":"m 532 381 l 368 381 l 396 583 l 560 583 l 532 381 m 269 381 l 126 381 l 126 289 l 257 289 l 217 0 l 315 0 l 356 289 l 519 289 l 479 0 l 578 0 l 618 289 l 761 289 l 761 381 l 631 381 l 658 583 l 801 583 l 801 675 l 671 675 l 711 964 l 613 964 l 572 675 l 408 675 l 449 964 l 350 964 l 310 675 l 167 675 l 167 583 l 297 583 l 269 381 z "},"$":{"ha":928,"x_min":51,"x_max":876,"o":"m 424 94 q 311 118 357 99 q 240 166 265 138 q 203 225 214 194 q 190 286 193 256 l 51 286 q 81 155 51 213 q 162 58 110 97 q 281 -2 214 18 q 424 -22 347 -22 l 424 -146 l 490 -146 l 490 -22 q 635 -6 565 -22 q 758 47 704 11 q 844 139 813 83 q 876 268 876 194 q 788 459 876 396 q 490 557 700 522 l 490 869 q 644 827 588 865 q 711 715 701 789 l 850 715 q 751 912 840 839 q 490 986 663 985 l 490 1110 l 424 1110 l 424 986 q 296 970 358 986 q 182 921 233 954 q 101 834 131 888 q 71 708 71 781 q 101 587 71 636 q 182 508 132 538 q 290 462 232 478 q 424 433 349 446 l 424 94 m 424 565 q 265 616 321 576 q 210 718 210 656 q 266 826 210 788 q 424 869 322 864 l 424 565 m 490 421 q 681 364 624 404 q 738 253 738 324 q 675 139 738 183 q 490 94 613 94 l 490 421 z "},"%":{"ha":1389,"x_min":83,"x_max":1306,"o":"m 1189 249 q 1057 69 1189 69 q 925 249 925 69 q 959 382 925 336 q 1057 428 993 428 q 1155 382 1121 428 q 1189 249 1189 336 m 808 249 q 872 51 808 125 q 1057 -22 935 -22 q 1242 51 1179 -22 q 1306 249 1306 125 q 1242 446 1306 372 q 1057 519 1179 519 q 872 446 935 519 q 808 249 808 372 m 464 715 q 332 536 464 536 q 200 715 200 536 q 234 849 200 803 q 332 894 268 894 q 430 849 396 894 q 464 715 464 803 m 83 715 q 147 518 83 592 q 332 444 210 444 q 517 518 454 444 q 581 715 581 592 q 517 913 581 839 q 332 986 454 986 q 147 913 210 986 q 83 715 83 839 m 361 -22 l 478 -22 l 1029 986 l 913 986 l 361 -22 z "},"&":{"ha":1132,"x_min":106,"x_max":1163,"o":"m 969 0 l 1163 0 l 929 215 q 990 334 971 274 q 1011 457 1008 394 l 881 457 q 866 372 876 406 q 835 303 856 338 l 572 546 q 719 648 674 586 q 764 776 764 710 q 695 930 764 868 q 513 992 626 992 q 324 931 392 992 q 256 768 256 869 q 279 671 256 721 q 364 567 303 621 q 168 444 231 521 q 106 271 106 368 q 126 167 106 218 q 192 72 146 115 q 314 1 238 28 q 497 -25 390 -25 q 701 10 606 -25 q 850 113 796 46 l 969 0 m 386 775 q 419 846 386 817 q 514 875 451 875 q 599 844 565 875 q 633 768 633 813 q 599 689 633 728 q 490 619 564 650 q 410 706 435 671 q 386 775 386 740 m 758 193 q 651 115 718 139 q 504 92 585 92 q 385 108 435 92 q 307 152 336 125 q 265 211 278 179 q 253 275 253 243 q 294 392 253 340 q 443 489 335 443 l 758 193 z "},"'":{"ha":464,"x_min":174,"x_max":290,"o":"m 174 618 l 290 618 l 290 992 l 174 992 l 174 618 z "},"(":{"ha":565,"x_min":142,"x_max":524,"o":"m 524 -264 q 430 -144 474 -212 q 353 5 386 -76 q 300 178 319 86 q 281 364 281 269 q 300 550 281 458 q 353 723 319 642 q 431 872 388 804 q 524 992 474 940 l 419 992 q 142 364 142 704 q 419 -264 142 25 l 524 -264 z "},")":{"ha":565,"x_min":42,"x_max":424,"o":"m 146 -264 q 424 364 424 25 q 146 992 424 704 l 42 992 q 135 872 92 940 q 213 723 179 804 q 265 550 246 642 q 285 364 285 458 q 265 178 285 269 q 212 6 246 88 q 135 -144 178 -76 q 42 -264 92 -212 l 146 -264 z "},"*":{"ha":643,"x_min":64,"x_max":579,"o":"m 242 722 l 114 588 l 185 525 l 321 668 l 460 525 l 535 588 l 400 722 l 579 792 l 543 883 l 371 815 l 371 992 l 271 992 l 271 815 l 103 883 l 64 792 l 242 722 z "},"+":{"ha":833,"x_min":65,"x_max":768,"o":"m 358 410 l 65 410 l 65 293 l 358 293 l 358 0 l 475 0 l 475 293 l 768 293 l 768 410 l 475 410 l 475 703 l 358 703 l 358 410 z "},",":{"ha":464,"x_min":146,"x_max":318,"o":"m 146 0 l 229 0 q 208 -100 228 -68 q 146 -144 189 -132 l 146 -212 q 276 -133 233 -197 q 318 19 318 -69 l 318 161 l 146 161 l 146 0 z "},"-":{"ha":668,"x_min":90,"x_max":578,"o":"m 90 314 l 578 314 l 578 458 l 90 458 l 90 314 z "},".":{"ha":464,"x_min":146,"x_max":318,"o":"m 146 0 l 318 0 l 318 161 l 146 161 l 146 0 z "},"/":{"ha":564,"x_min":0,"x_max":564,"o":"m 0 -25 l 131 -25 l 564 1017 l 433 1017 l 0 -25 z "},":":{"ha":464,"x_min":146,"x_max":318,"o":"m 146 554 l 318 554 l 318 715 l 146 715 l 146 554 m 146 0 l 318 0 l 318 161 l 146 161 l 146 0 z "},";":{"ha":464,"x_min":146,"x_max":318,"o":"m 146 0 l 229 0 q 208 -100 228 -68 q 146 -144 189 -132 l 146 -212 q 276 -133 233 -197 q 318 19 318 -69 l 318 161 l 146 161 l 146 0 m 146 554 l 318 554 l 318 715 l 146 715 l 146 554 z "},"<":{"ha":833,"x_min":65,"x_max":768,"o":"m 65 301 l 768 -12 l 768 104 l 208 351 l 768 599 l 768 715 l 65 401 l 65 301 z "},"=":{"ha":833,"x_min":65,"x_max":768,"o":"m 65 438 l 768 438 l 768 554 l 65 554 l 65 438 m 65 149 l 768 149 l 768 265 l 65 265 l 65 149 z "},">":{"ha":833,"x_min":65,"x_max":768,"o":"m 625 351 l 65 104 l 65 -12 l 768 301 l 768 401 l 65 715 l 65 599 l 625 351 z "},"?":{"ha":928,"x_min":81,"x_max":810,"o":"m 219 683 q 288 842 224 785 q 454 900 351 900 q 604 855 546 900 q 663 718 663 810 q 629 615 663 654 q 528 528 596 575 q 461 478 488 500 q 411 426 435 456 q 374 355 388 396 q 360 261 360 314 l 490 261 q 525 358 490 318 q 631 449 560 397 q 701 503 674 479 q 754 557 729 526 q 794 627 779 588 q 810 717 810 667 q 710 938 810 860 q 460 1017 610 1017 q 332 1001 396 1017 q 213 949 268 986 q 121 845 157 911 q 81 683 85 779 l 219 683 m 339 0 l 511 0 l 511 161 l 339 161 l 339 0 z "},"@":{"ha":1111,"x_min":49,"x_max":1063,"o":"m 696 553 q 681 465 696 511 q 640 378 667 419 q 576 313 613 338 q 499 288 539 288 q 415 326 447 288 q 382 426 382 365 q 397 515 382 468 q 440 600 413 561 q 503 663 467 639 q 582 688 540 688 q 663 647 629 688 q 696 553 696 607 m 738 683 q 670 763 711 738 q 576 788 629 788 q 451 756 508 788 q 351 671 393 725 q 288 550 310 617 q 265 414 265 483 q 281 327 265 368 q 324 254 296 286 q 390 205 351 222 q 471 188 428 188 q 558 211 515 188 q 632 269 600 235 l 635 269 q 660 208 636 229 q 719 188 685 188 q 826 215 767 188 q 939 293 885 242 q 1028 420 993 344 q 1063 589 1063 496 q 1024 761 1063 682 q 918 898 986 840 q 763 986 850 956 q 578 1017 675 1017 q 373 977 469 1017 q 203 866 276 938 q 90 699 131 794 q 49 497 49 604 q 90 293 49 389 q 204 126 131 197 q 376 15 278 54 q 585 -25 474 -25 q 833 38 718 -25 q 1015 211 947 100 l 914 211 q 768 99 854 140 q 590 58 682 58 q 416 91 497 58 q 275 182 335 124 q 182 320 215 240 q 149 492 149 400 q 180 663 149 582 q 268 805 211 744 q 404 899 325 865 q 578 933 483 933 q 730 908 658 933 q 856 836 801 883 q 940 722 910 789 q 971 571 971 654 q 954 465 971 517 q 909 374 938 414 q 845 310 881 333 q 775 286 810 286 q 743 318 743 286 q 753 367 743 332 q 758 386 756 378 l 864 765 l 764 765 l 738 683 z "},"A":{"ha":1054,"x_min":-6,"x_max":1060,"o":"m 711 417 l 335 417 l 521 856 l 711 417 m 892 0 l 1060 0 l 611 992 l 443 992 l -6 0 l 153 0 l 279 289 l 765 289 l 892 0 z "},"B":{"ha":1081,"x_min":107,"x_max":1007,"o":"m 107 0 l 693 0 q 831 24 771 0 q 929 88 890 47 q 988 181 968 129 q 1007 286 1007 232 q 958 450 1007 390 q 819 531 908 510 l 819 533 q 925 608 886 557 q 964 743 964 658 q 888 927 964 863 q 658 992 813 992 l 107 992 l 107 0 m 254 582 l 254 864 l 647 864 q 776 827 735 864 q 817 721 817 790 q 776 621 817 660 q 656 582 735 582 l 254 582 m 254 128 l 254 454 l 665 454 q 757 441 719 454 q 817 406 794 428 q 850 355 840 383 q 860 296 860 326 q 850 233 860 263 q 817 179 840 203 q 753 142 793 156 q 653 128 713 128 l 254 128 z "},"C":{"ha":1132,"x_min":53,"x_max":1069,"o":"m 1069 635 q 1013 815 1061 740 q 891 935 964 890 q 735 998 818 979 q 572 1017 653 1017 q 351 977 449 1017 q 187 867 253 938 q 87 703 121 797 q 53 499 53 608 q 97 259 53 360 q 216 95 142 158 q 383 3 290 32 q 574 -25 475 -25 q 765 6 678 -25 q 918 94 853 38 q 1022 224 983 150 q 1069 379 1061 297 l 922 379 q 801 171 892 239 q 575 103 711 103 q 404 135 476 103 q 287 221 332 167 q 221 342 242 275 q 200 483 200 410 q 301 785 200 682 q 583 889 403 889 q 818 817 732 889 q 922 635 904 746 l 1069 635 z "},"D":{"ha":1106,"x_min":107,"x_max":1043,"o":"m 107 0 l 618 0 q 810 40 729 0 q 943 149 892 79 q 1019 311 994 219 q 1043 510 1043 403 q 935 863 1043 733 q 610 992 826 992 l 107 992 l 107 0 m 254 128 l 254 864 l 583 864 q 737 835 675 864 q 833 755 799 806 q 882 642 868 704 q 896 507 896 579 q 884 367 896 432 q 842 247 872 301 q 754 160 811 193 q 611 128 697 128 l 254 128 z "},"E":{"ha":978,"x_min":107,"x_max":918,"o":"m 107 0 l 918 0 l 918 128 l 254 128 l 254 449 l 885 449 l 885 576 l 254 576 l 254 864 l 904 864 l 904 992 l 107 992 l 107 0 z "},"F":{"ha":900,"x_min":107,"x_max":875,"o":"m 107 0 l 254 0 l 254 443 l 846 443 l 846 571 l 254 571 l 254 864 l 875 864 l 875 992 l 107 992 l 107 0 z "},"G":{"ha":1208,"x_min":71,"x_max":1106,"o":"m 650 407 l 975 407 q 863 188 964 272 q 604 103 763 103 q 454 125 524 103 q 331 194 385 147 q 248 315 278 240 q 218 492 218 390 q 241 644 218 572 q 311 771 264 715 q 431 858 358 826 q 597 889 503 889 q 817 837 736 889 q 933 679 899 785 l 1089 679 q 1016 844 1067 778 q 897 949 965 911 q 751 1001 828 986 q 590 1017 674 1017 q 398 985 490 1017 q 231 889 306 954 q 114 721 157 824 q 71 479 71 618 q 99 303 71 392 q 188 141 126 215 q 351 21 249 67 q 594 -25 453 -25 q 730 -10 669 -25 q 835 28 790 4 q 913 80 881 51 q 975 142 946 108 l 1000 0 l 1106 0 l 1106 535 l 650 535 l 650 407 z "},"H":{"ha":1183,"x_min":107,"x_max":1076,"o":"m 929 0 l 1076 0 l 1076 992 l 929 992 l 929 594 l 254 594 l 254 992 l 107 992 l 107 0 l 254 0 l 254 467 l 929 467 l 929 0 z "},"I":{"ha":386,"x_min":119,"x_max":267,"o":"m 119 0 l 267 0 l 267 992 l 119 992 l 119 0 z "},"J":{"ha":797,"x_min":32,"x_max":697,"o":"m 32 338 q 40 213 32 269 q 81 101 49 157 q 183 10 113 46 q 369 -25 253 -25 q 502 -7 443 -25 q 605 51 561 11 q 673 158 649 92 q 697 319 697 225 l 697 992 l 550 992 l 550 289 q 503 143 550 194 q 367 92 456 92 q 222 142 272 92 q 171 290 171 192 l 171 338 l 32 338 z "},"K":{"ha":1054,"x_min":113,"x_max":1049,"o":"m 846 0 l 1049 0 l 551 581 l 1022 992 l 814 992 l 260 493 l 260 992 l 113 992 l 113 0 l 260 0 l 260 324 l 440 483 l 846 0 z "},"L":{"ha":875,"x_min":113,"x_max":863,"o":"m 113 0 l 863 0 l 863 128 l 260 128 l 260 992 l 113 992 l 113 0 z "},"M":{"ha":1415,"x_min":107,"x_max":1308,"o":"m 707 169 l 314 992 l 107 992 l 107 0 l 254 0 l 254 806 l 257 806 l 642 0 l 772 0 l 1158 822 l 1161 822 l 1161 0 l 1308 0 l 1308 992 l 1104 992 l 707 169 z "},"N":{"ha":1183,"x_min":113,"x_max":1071,"o":"m 900 0 l 1071 0 l 1071 992 l 924 992 l 924 203 l 921 203 l 283 992 l 113 992 l 113 0 l 260 0 l 260 789 l 263 789 l 900 0 z "},"O":{"ha":1208,"x_min":53,"x_max":1156,"o":"m 53 496 q 84 303 53 396 q 182 137 115 211 q 355 19 249 63 q 604 -25 461 -25 q 853 19 747 -25 q 1026 137 960 63 q 1124 303 1093 211 q 1156 496 1156 396 q 1124 688 1156 596 q 1026 855 1093 781 q 853 973 960 929 q 604 1017 747 1017 q 355 973 461 1017 q 182 855 249 929 q 84 688 115 781 q 53 496 53 596 m 1008 496 q 895 205 1008 307 q 604 103 782 103 q 313 205 426 103 q 200 496 200 307 q 313 788 200 686 q 604 889 426 889 q 895 788 782 889 q 1008 496 1008 686 z "},"P":{"ha":1003,"x_min":113,"x_max":956,"o":"m 113 0 l 260 0 l 260 397 l 633 397 q 872 481 788 397 q 956 707 956 565 q 871 919 956 846 q 624 992 786 992 l 113 992 l 113 0 m 260 525 l 260 864 l 640 864 q 765 821 722 864 q 808 704 808 778 q 763 574 808 622 q 614 525 717 525 l 260 525 z "},"Q":{"ha":1208,"x_min":53,"x_max":1156,"o":"m 1035 -107 l 1113 -11 l 983 97 q 1113 274 1071 169 q 1156 496 1156 379 q 1124 688 1156 596 q 1026 855 1093 781 q 853 973 960 929 q 604 1017 747 1017 q 355 973 461 1017 q 182 855 249 929 q 84 688 115 781 q 53 496 53 596 q 84 303 53 396 q 182 137 115 211 q 355 19 249 63 q 604 -25 461 -25 q 875 29 760 -25 l 1035 -107 m 760 126 q 604 103 690 103 q 313 205 426 103 q 200 496 200 307 q 313 788 200 686 q 604 889 426 889 q 895 788 782 889 q 1008 496 1008 686 q 974 316 1008 394 q 875 188 939 238 l 736 304 l 660 211 l 760 126 z "},"R":{"ha":1054,"x_min":113,"x_max":1022,"o":"m 113 0 l 260 0 l 260 421 l 644 421 q 784 369 739 421 q 836 189 829 318 q 838 157 836 182 q 847 47 843 76 q 867 0 851 18 l 1022 0 q 1002 33 1010 15 q 990 79 994 51 q 982 149 985 107 q 975 269 979 190 q 933 415 971 358 q 831 481 896 471 l 831 483 q 954 574 911 510 q 997 728 997 638 q 982 824 997 778 q 935 909 967 871 q 850 969 903 947 q 726 992 797 992 l 113 992 l 113 0 m 260 549 l 260 864 l 675 864 q 806 822 761 864 q 850 706 850 779 q 842 649 850 676 q 813 599 833 622 q 758 563 793 576 q 671 549 722 549 l 260 549 z "},"S":{"ha":926,"x_min":22,"x_max":904,"o":"m 22 326 q 60 159 22 228 q 163 50 99 90 q 308 -8 228 10 q 478 -25 388 -25 q 633 -9 558 -25 q 770 45 708 7 q 868 147 832 83 q 904 300 904 210 q 872 419 904 371 q 792 494 840 467 q 701 533 744 521 q 608 554 657 544 l 606 554 l 363 596 q 238 644 275 611 q 200 726 200 678 q 220 799 200 768 q 274 851 240 831 q 347 880 307 871 q 431 889 388 889 q 572 872 515 889 q 660 828 628 856 q 706 772 692 801 q 725 706 719 742 l 872 706 q 830 852 867 792 q 733 949 793 913 q 602 1001 674 985 q 450 1017 531 1017 q 158 935 263 1017 q 53 715 53 853 q 81 599 53 647 q 152 523 108 551 q 244 479 196 494 q 347 456 293 464 l 572 418 q 710 369 664 403 q 757 271 757 335 q 683 147 757 192 q 489 103 610 103 q 372 113 428 103 q 272 149 317 124 q 199 219 226 175 q 169 326 171 263 l 22 326 z "},"T":{"ha":900,"x_min":1,"x_max":899,"o":"m 376 0 l 524 0 l 524 864 l 899 864 l 899 992 l 1 992 l 1 864 l 376 864 l 376 0 z "},"U":{"ha":1106,"x_min":104,"x_max":1001,"o":"m 104 375 q 553 -25 104 -25 q 1001 375 1001 -25 l 1001 992 l 854 992 l 854 357 q 774 165 854 228 q 553 103 694 103 q 331 165 411 103 q 251 357 251 228 l 251 992 l 104 992 l 104 375 z "},"V":{"ha":1003,"x_min":-15,"x_max":1018,"o":"m 508 153 l 151 992 l -15 992 l 426 0 l 583 0 l 1018 992 l 860 992 l 508 153 z "},"W":{"ha":1518,"x_min":-10,"x_max":1528,"o":"m 1031 0 l 1192 0 l 1528 992 l 1375 992 l 1122 186 l 1119 186 l 847 992 l 672 992 l 407 186 l 404 186 l 150 992 l -10 992 l 317 0 l 479 0 l 753 822 l 756 822 l 1031 0 z "},"X":{"ha":978,"x_min":1,"x_max":976,"o":"m 492 610 l 208 992 l 21 992 l 393 508 l 1 0 l 185 0 l 483 401 l 783 0 l 976 0 l 583 508 l 965 992 l 783 992 l 492 610 z "},"Y":{"ha":1003,"x_min":-8,"x_max":1011,"o":"m 503 540 l 179 992 l -8 992 l 426 408 l 426 0 l 574 0 l 574 415 l 1011 992 l 832 992 l 503 540 z "},"Z":{"ha":951,"x_min":19,"x_max":932,"o":"m 19 0 l 932 0 l 932 128 l 210 128 l 921 864 l 921 992 l 69 992 l 69 864 l 728 864 l 19 132 l 19 0 z "},"[":{"ha":565,"x_min":163,"x_max":481,"o":"m 163 -264 l 481 -264 l 481 -156 l 293 -156 l 293 883 l 481 883 l 481 992 l 163 992 l 163 -264 z "},"\\":{"ha":564,"x_min":0,"x_max":564,"o":"m 433 -25 l 564 -25 l 131 1017 l 0 1017 l 433 -25 z "},"]":{"ha":565,"x_min":85,"x_max":403,"o":"m 272 -156 l 85 -156 l 85 -264 l 403 -264 l 403 992 l 85 992 l 85 883 l 272 883 l 272 -156 z "},"^":{"ha":833,"x_min":79,"x_max":754,"o":"m 638 389 l 754 389 l 468 964 l 363 964 l 79 389 l 196 389 l 417 847 l 638 389 z "},"_":{"ha":694,"x_min":0,"x_max":694,"o":"m 0 -174 l 694 -174 l 694 -104 l 0 -104 l 0 -174 z "},"`":{"ha":308,"x_min":-56,"x_max":238,"o":"m 126 835 l 238 835 l 118 1029 l -56 1029 l 126 835 z "},"a":{"ha":900,"x_min":51,"x_max":890,"o":"m 214 500 q 278 612 217 579 q 439 644 339 644 q 522 640 485 644 q 588 622 558 635 q 633 585 617 608 q 649 525 649 561 q 619 462 649 479 q 522 438 589 444 l 364 421 q 122 350 192 403 q 51 194 51 297 q 65 117 51 154 q 110 47 78 79 q 202 -5 143 15 q 347 -25 261 -25 q 528 7 440 -25 q 657 93 617 39 q 694 13 664 35 q 782 -8 725 -8 q 890 0 840 -8 l 890 97 q 842 92 863 92 q 779 154 779 92 l 779 546 q 749 647 779 606 q 671 712 719 689 q 564 744 622 735 q 444 753 506 753 q 187 693 276 753 q 83 500 97 633 l 214 500 m 649 288 q 626 206 649 243 q 563 140 603 168 q 471 98 524 113 q 360 83 418 83 q 238 115 285 83 q 190 199 190 147 q 230 281 190 254 q 356 318 269 307 l 513 338 q 603 355 574 346 q 649 381 633 364 l 649 288 z "},"b":{"ha":951,"x_min":85,"x_max":899,"o":"m 85 0 l 224 0 l 224 93 l 226 93 q 342 6 265 38 q 503 -25 419 -25 q 658 1 586 -25 q 783 76 729 26 q 868 199 838 126 q 899 360 899 271 q 868 522 899 450 q 783 643 838 593 q 658 719 729 693 q 503 744 586 744 q 342 713 417 744 q 226 618 267 681 l 224 618 l 224 1000 l 85 1000 l 85 0 m 751 360 q 735 258 751 306 q 687 173 719 211 q 603 113 654 135 q 485 92 553 92 q 365 113 417 92 q 281 173 314 135 q 231 259 247 211 q 215 360 215 307 q 289 556 215 483 q 485 628 363 628 q 679 556 607 628 q 751 360 751 483 z "},"c":{"ha":875,"x_min":53,"x_max":828,"o":"m 681 267 q 604 134 658 176 q 457 92 550 92 q 265 166 329 92 q 200 364 200 240 q 265 562 200 488 q 457 636 329 636 q 609 597 553 636 q 678 485 665 557 l 825 485 q 701 684 804 615 q 447 753 599 753 q 277 723 351 753 q 151 638 203 693 q 53 360 53 531 q 75 217 53 286 q 144 94 97 149 q 268 7 192 39 q 449 -25 344 -25 q 692 42 597 -25 q 828 267 786 110 l 681 267 z "},"d":{"ha":951,"x_min":53,"x_max":867,"o":"m 728 0 l 867 0 l 867 1000 l 728 1000 l 728 626 l 725 626 q 609 714 685 683 q 449 744 533 744 q 294 719 367 744 q 168 643 222 693 q 83 522 114 593 q 53 360 53 450 q 83 199 53 271 q 168 76 114 126 q 294 1 222 26 q 449 -25 367 -25 q 609 6 532 -25 q 725 93 686 38 l 728 93 l 728 0 m 200 360 q 272 556 200 483 q 467 628 344 628 q 663 556 590 628 q 736 360 736 483 q 720 258 736 307 q 671 172 704 210 q 586 113 638 135 q 467 92 535 92 q 348 113 399 92 q 265 173 297 135 q 216 258 232 211 q 200 360 200 306 z "},"e":{"ha":926,"x_min":53,"x_max":869,"o":"m 869 322 l 869 340 q 836 528 869 449 q 747 658 803 608 q 620 730 690 707 q 475 753 550 753 q 292 722 372 753 q 159 638 213 692 q 79 515 106 585 q 53 364 53 444 q 79 213 53 283 q 159 90 106 143 q 292 6 213 36 q 475 -25 372 -25 q 586 -11 531 -25 q 692 33 642 3 q 784 110 743 63 q 850 221 825 158 l 703 221 q 659 159 686 185 q 597 118 632 133 q 468 92 540 92 q 375 107 421 92 q 291 152 329 122 q 228 225 253 182 q 200 322 204 268 l 869 322 m 204 431 q 294 581 219 525 q 468 636 369 636 q 638 582 568 636 q 722 431 707 528 l 204 431 z "},"f":{"ha":463,"x_min":-21,"x_max":472,"o":"m 128 728 l -21 728 l -21 619 l 128 619 l 128 0 l 267 0 l 267 619 l 472 619 l 472 728 l 267 728 l 267 829 q 295 886 267 872 q 394 900 324 900 q 472 897 419 900 l 472 1006 q 438 1010 460 1007 q 351 1017 381 1017 q 184 975 240 1017 q 128 836 128 933 l 128 728 z "},"g":{"ha":951,"x_min":53,"x_max":875,"o":"m 736 621 l 733 621 q 619 713 694 682 q 450 744 543 744 q 303 723 374 744 q 176 656 233 701 q 86 538 119 610 q 53 368 53 465 q 86 199 53 271 q 176 81 119 126 q 305 15 233 36 q 451 -7 376 -7 q 608 22 536 -7 q 733 128 681 51 l 736 128 l 736 22 q 670 -136 736 -75 q 465 -197 604 -197 q 300 -172 358 -197 q 224 -79 242 -146 l 85 -79 q 130 -197 94 -151 q 217 -267 165 -243 q 326 -298 268 -290 q 451 -306 383 -306 q 776 -220 676 -306 q 875 61 875 -135 l 875 728 l 736 728 l 736 621 m 736 367 q 664 181 736 253 q 468 110 592 110 q 272 181 343 110 q 200 367 200 253 q 272 555 200 482 q 468 628 344 628 q 664 555 592 628 q 736 367 736 482 z "},"h":{"ha":901,"x_min":85,"x_max":817,"o":"m 85 0 l 224 0 l 224 419 q 293 579 224 522 q 463 636 363 636 q 625 593 572 636 q 678 468 678 550 l 678 0 l 817 0 l 817 496 q 733 690 817 626 q 511 753 650 753 q 348 721 424 753 q 226 618 272 689 l 224 618 l 224 1000 l 85 1000 l 85 0 z "},"i":{"ha":308,"x_min":85,"x_max":224,"o":"m 85 0 l 224 0 l 224 728 l 85 728 l 85 0 m 85 847 l 224 847 l 224 1000 l 85 1000 l 85 847 z "},"j":{"ha":308,"x_min":-72,"x_max":224,"o":"m -72 -278 l -68 -278 q -7 -281 -24 -281 q 174 -227 124 -281 q 224 -44 224 -174 l 224 728 l 85 728 l 85 -76 q 60 -143 85 -122 q -21 -164 35 -164 q -72 -161 -54 -164 l -72 -278 m 85 847 l 224 847 l 224 1000 l 85 1000 l 85 847 z "},"k":{"ha":824,"x_min":96,"x_max":842,"o":"m 235 417 l 235 1000 l 96 1000 l 96 0 l 235 0 l 235 263 l 363 364 l 653 0 l 842 0 l 474 454 l 815 728 l 604 728 l 235 417 z "},"l":{"ha":308,"x_min":85,"x_max":224,"o":"m 85 0 l 224 0 l 224 1000 l 85 1000 l 85 0 z "},"m":{"ha":1414,"x_min":85,"x_max":1329,"o":"m 1190 0 l 1329 0 l 1329 496 q 1299 625 1329 574 q 1224 704 1269 676 q 1133 742 1178 732 q 1053 753 1088 753 q 882 718 953 753 q 758 618 811 683 q 651 720 717 688 q 511 753 586 753 q 348 721 424 753 q 226 618 272 689 l 224 618 l 224 728 l 85 728 l 85 0 l 224 0 l 224 419 q 293 579 224 522 q 463 636 363 636 q 588 596 539 636 q 638 463 638 556 l 638 0 l 776 0 l 776 440 q 844 586 776 536 q 1015 636 913 636 q 1141 596 1092 636 q 1190 463 1190 556 l 1190 0 z "},"n":{"ha":901,"x_min":85,"x_max":817,"o":"m 85 0 l 224 0 l 224 419 q 293 579 224 522 q 463 636 363 636 q 625 593 572 636 q 678 468 678 550 l 678 0 l 817 0 l 817 496 q 733 690 817 626 q 511 753 650 753 q 348 721 424 753 q 226 618 272 689 l 224 618 l 224 728 l 85 728 l 85 0 z "},"o":{"ha":950,"x_min":53,"x_max":897,"o":"m 53 364 q 79 213 53 283 q 159 90 106 143 q 292 6 213 36 q 475 -25 372 -25 q 658 6 579 -25 q 791 90 738 36 q 871 213 844 143 q 897 364 897 283 q 871 515 897 444 q 791 638 844 585 q 658 722 738 692 q 475 753 579 753 q 292 722 372 753 q 159 638 213 692 q 79 515 106 585 q 53 364 53 444 m 750 364 q 735 264 750 313 q 687 176 719 215 q 601 115 654 138 q 475 92 547 92 q 349 115 403 92 q 263 176 296 138 q 215 264 231 215 q 200 364 200 313 q 215 464 200 415 q 264 551 231 513 q 350 613 297 590 q 475 636 403 636 q 601 613 547 636 q 687 551 654 590 q 735 464 719 513 q 750 364 750 415 z "},"p":{"ha":951,"x_min":85,"x_max":899,"o":"m 85 -281 l 224 -281 l 224 93 l 226 93 q 342 6 267 36 q 503 -25 418 -25 q 658 1 586 -25 q 783 76 729 26 q 868 199 838 126 q 899 360 899 271 q 868 522 899 450 q 783 643 838 593 q 658 719 729 693 q 503 744 586 744 q 342 713 419 744 q 226 626 265 682 l 224 626 l 224 728 l 85 728 l 85 -281 m 751 360 q 679 164 751 236 q 485 92 607 92 q 289 164 363 92 q 215 360 215 236 q 231 461 215 413 q 281 547 247 510 q 365 606 314 585 q 485 628 417 628 q 603 606 553 628 q 687 547 654 585 q 735 461 719 508 q 751 360 751 414 z "},"q":{"ha":951,"x_min":53,"x_max":867,"o":"m 728 626 l 725 626 q 609 713 686 682 q 449 744 532 744 q 294 719 367 744 q 168 643 222 693 q 83 522 114 593 q 53 360 53 450 q 83 199 53 271 q 168 76 114 126 q 294 1 222 26 q 449 -25 367 -25 q 610 7 535 -25 q 725 101 685 39 l 728 101 l 728 -281 l 867 -281 l 867 728 l 728 728 l 728 626 m 200 360 q 216 462 200 414 q 265 547 232 510 q 348 606 297 585 q 467 628 399 628 q 586 606 535 628 q 671 547 638 585 q 720 461 704 510 q 736 360 736 413 q 663 164 736 236 q 467 92 590 92 q 272 164 344 92 q 200 360 200 236 z "},"r":{"ha":565,"x_min":85,"x_max":556,"o":"m 85 0 l 224 0 l 224 369 q 287 547 224 485 q 457 608 350 608 q 506 605 483 608 q 556 594 528 601 l 556 744 q 520 751 536 750 q 476 753 504 753 q 338 715 403 753 q 226 594 274 676 l 224 594 l 224 728 l 85 728 l 85 0 z "},"s":{"ha":824,"x_min":43,"x_max":781,"o":"m 43 229 q 83 103 49 154 q 169 25 117 53 q 284 -14 222 -3 q 415 -25 346 -25 q 684 38 588 -25 q 781 224 781 100 q 721 351 781 303 q 526 417 661 399 l 329 443 q 233 474 258 453 q 208 533 208 494 q 225 586 208 564 q 269 621 242 608 q 331 639 297 633 q 400 644 364 644 q 559 606 503 644 q 618 508 615 568 l 757 508 q 660 687 747 621 q 401 753 572 753 q 158 690 247 753 q 69 518 69 628 q 126 387 69 438 q 267 325 183 336 l 496 294 q 604 261 575 283 q 633 197 633 239 q 623 156 633 176 q 588 119 613 136 q 519 93 563 103 q 411 83 475 83 q 303 97 349 83 q 232 131 258 110 q 194 178 206 153 q 182 229 182 203 l 43 229 z "},"t":{"ha":514,"x_min":-4,"x_max":493,"o":"m 146 728 l -4 728 l -4 619 l 146 619 l 146 147 q 192 20 146 65 q 338 -25 239 -25 q 493 -15 438 -25 l 493 101 q 397 92 438 92 q 313 110 342 92 q 285 171 285 129 l 285 619 l 493 619 l 493 728 l 285 728 l 285 951 l 146 951 l 146 728 z "},"u":{"ha":901,"x_min":85,"x_max":817,"o":"m 817 728 l 678 728 l 678 308 q 608 149 678 206 q 439 92 539 92 q 276 135 329 92 q 224 260 224 178 l 224 728 l 85 728 l 85 232 q 168 38 85 101 q 390 -25 251 -25 q 553 7 478 -25 q 675 110 629 39 l 678 110 l 678 0 l 817 0 l 817 728 z "},"v":{"ha":797,"x_min":-7,"x_max":804,"o":"m 403 153 l 153 728 l -7 728 l 324 0 l 476 0 l 804 728 l 649 728 l 403 153 z "},"w":{"ha":1260,"x_min":13,"x_max":1247,"o":"m 892 172 l 889 172 l 704 728 l 551 728 l 371 172 l 368 172 l 167 728 l 13 728 l 294 0 l 442 0 l 624 556 l 626 556 l 808 0 l 960 0 l 1247 728 l 1100 728 l 892 172 z "},"x":{"ha":824,"x_min":-7,"x_max":831,"o":"m 413 478 l 206 728 l 17 728 l 317 376 l -7 0 l 176 0 l 407 276 l 636 0 l 831 0 l 503 376 l 808 728 l 624 728 l 413 478 z "},"y":{"ha":797,"x_min":-7,"x_max":804,"o":"m 403 153 l 153 728 l -7 728 l 329 -11 l 297 -78 q 266 -137 279 -117 q 238 -168 253 -157 q 201 -184 222 -179 q 146 -189 179 -189 q 93 -186 125 -189 q 65 -183 76 -185 l 65 -300 l 69 -300 q 171 -306 139 -306 q 257 -299 222 -306 q 320 -273 292 -292 q 373 -218 349 -254 q 424 -125 397 -182 l 804 728 l 649 728 l 403 153 z "},"z":{"ha":824,"x_min":38,"x_max":786,"o":"m 38 0 l 786 0 l 786 117 l 222 117 l 765 619 l 765 728 l 64 728 l 64 611 l 574 611 l 38 114 l 38 0 z "},"{":{"ha":463,"x_min":65,"x_max":431,"o":"m 65 318 q 146 269 111 315 q 181 154 181 224 l 181 -82 q 227 -215 181 -165 q 331 -264 274 -264 l 431 -264 l 431 -181 l 364 -181 q 312 -147 326 -181 q 297 -61 297 -112 l 297 176 q 284 257 297 222 q 251 313 271 292 q 210 347 231 335 q 174 363 190 358 l 174 365 q 210 381 190 369 q 251 415 231 393 q 284 472 271 438 q 297 551 297 506 l 297 789 q 312 874 297 840 q 364 908 326 908 l 431 908 l 431 992 l 331 992 q 227 942 274 992 q 181 810 181 893 l 181 574 q 146 458 181 504 q 65 410 111 413 l 65 318 z "},"|":{"ha":308,"x_min":96,"x_max":213,"o":"m 96 -25 l 213 -25 l 213 1017 l 96 1017 l 96 -25 z "},"}":{"ha":463,"x_min":32,"x_max":397,"o":"m 32 -264 l 132 -264 q 235 -215 189 -264 q 282 -82 282 -165 l 282 154 q 317 269 282 224 q 397 318 351 315 l 397 410 q 317 458 351 413 q 282 574 282 504 l 282 810 q 235 942 282 893 q 132 992 189 992 l 32 992 l 32 908 l 99 908 q 151 874 136 908 q 165 789 165 840 l 165 551 q 178 471 165 506 q 212 415 192 436 q 252 381 232 393 q 289 365 272 369 l 289 363 q 252 347 272 358 q 212 313 232 335 q 178 256 192 290 q 165 176 165 222 l 165 -61 q 151 -147 165 -112 q 99 -181 136 -181 l 32 -181 l 32 -264 z "},"~":{"ha":833,"x_min":96,"x_max":738,"o":"m 146 244 q 268 351 207 351 q 315 341 289 351 q 388 308 342 331 l 403 301 q 490 265 451 278 q 564 251 528 251 q 661 279 618 251 q 738 371 704 307 l 688 458 q 565 351 626 351 q 518 362 544 351 q 446 394 492 372 l 431 401 q 344 438 383 425 q 269 451 306 451 q 172 424 215 451 q 96 332 129 396 l 146 244 z "},"‚":{"ha":464,"x_min":146,"x_max":318,"o":"m 146 -212 q 276 -133 233 -197 q 318 19 318 -69 l 318 161 l 146 161 l 146 0 l 229 0 q 208 -100 228 -68 q 146 -144 189 -132 l 146 -212 z "},"ƒ":{"ha":928,"x_min":13,"x_max":797,"o":"m 371 529 l 186 529 l 169 446 l 353 446 l 260 -22 q 210 -135 243 -106 q 125 -164 178 -164 q 88 -160 104 -164 q 43 -150 72 -157 q 36 -147 39 -149 l 13 -258 q 76 -268 40 -264 q 139 -272 111 -272 q 308 -220 244 -272 q 389 -79 372 -168 l 492 446 l 681 446 l 700 529 l 510 529 l 550 728 q 595 841 567 813 q 679 869 624 869 q 717 868 699 869 q 774 861 736 867 l 797 975 q 757 979 792 975 q 654 986 690 986 q 504 938 563 986 q 421 771 446 890 l 371 529 z "},"„":{"ha":668,"x_min":101,"x_max":567,"o":"m 394 -212 q 524 -133 482 -197 q 567 19 567 -69 l 567 161 l 394 161 l 394 0 l 478 0 q 457 -100 476 -68 q 394 -144 438 -132 l 394 -212 m 101 -212 q 231 -133 189 -197 q 274 19 274 -69 l 274 161 l 101 161 l 101 0 l 185 0 q 164 -100 183 -68 q 101 -144 144 -132 l 101 -212 z "},"…":{"ha":1389,"x_min":146,"x_max":1243,"o":"m 146 0 l 318 0 l 318 161 l 146 161 l 146 0 m 608 0 l 781 0 l 781 161 l 608 161 l 608 0 m 1071 0 l 1243 0 l 1243 161 l 1071 161 l 1071 0 z "},"†":{"ha":928,"x_min":74,"x_max":854,"o":"m 74 542 l 394 542 l 394 -264 l 533 -264 l 533 542 l 854 542 l 854 669 l 533 669 l 533 992 l 394 992 l 394 669 l 74 669 l 74 542 z "},"‡":{"ha":928,"x_min":74,"x_max":854,"o":"m 394 164 l 74 164 l 74 47 l 394 47 l 394 -264 l 533 -264 l 533 47 l 854 47 l 854 164 l 533 164 l 533 564 l 854 564 l 854 681 l 533 681 l 533 992 l 394 992 l 394 681 l 74 681 l 74 564 l 394 564 l 394 164 z "},"ˆ":{"ha":308,"x_min":-100,"x_max":408,"o":"m 274 835 l 408 835 l 228 1029 l 81 1029 l -100 835 l 35 835 l 154 957 l 274 835 z "},"‰":{"ha":1621,"x_min":10,"x_max":1611,"o":"m 1136 239 q 1194 50 1136 122 q 1374 -22 1251 -22 q 1553 50 1496 -22 q 1611 239 1611 122 q 1553 428 1611 356 q 1374 500 1496 500 q 1194 428 1251 500 q 1136 239 1136 356 m 1503 239 q 1469 111 1503 153 q 1374 69 1436 69 q 1278 111 1313 69 q 1244 239 1244 153 q 1278 367 1244 325 q 1374 408 1313 408 q 1469 367 1436 408 q 1503 239 1503 325 m 601 239 q 659 50 601 122 q 839 -22 717 -22 q 1019 50 961 -22 q 1076 239 1076 122 q 1019 428 1076 356 q 839 500 961 500 q 659 428 717 500 q 601 239 601 356 m 968 239 q 935 111 968 153 q 839 69 901 69 q 744 111 778 69 q 710 239 710 153 q 744 367 710 325 q 839 408 778 408 q 935 367 901 408 q 968 239 968 325 m 376 725 q 343 597 376 639 q 247 556 310 556 q 152 597 186 556 q 118 725 118 639 q 152 853 118 811 q 247 894 186 894 q 343 853 310 894 q 376 725 376 811 m 10 725 q 67 536 10 608 q 247 464 125 464 q 427 536 369 464 q 485 725 485 608 q 427 914 485 842 q 247 986 369 986 q 67 914 125 986 q 10 725 10 842 m 211 -22 l 328 -22 l 879 986 l 763 986 l 211 -22 z "},"Š":{"ha":926,"x_min":22,"x_max":904,"o":"m 492 1129 l 372 1251 l 238 1251 l 418 1057 l 565 1057 l 746 1251 l 611 1251 l 492 1129 m 22 326 q 60 159 22 228 q 163 50 99 90 q 308 -8 228 10 q 478 -25 388 -25 q 633 -9 558 -25 q 770 45 708 7 q 868 147 832 83 q 904 300 904 210 q 872 419 904 371 q 792 494 840 467 q 701 533 744 521 q 608 554 657 544 l 606 554 l 363 596 q 238 644 275 611 q 200 726 200 678 q 220 799 200 768 q 274 851 240 831 q 347 880 307 871 q 431 889 388 889 q 572 872 515 889 q 660 828 628 856 q 706 772 692 801 q 725 706 719 742 l 872 706 q 830 852 867 792 q 733 949 793 913 q 602 1001 674 985 q 450 1017 531 1017 q 158 935 263 1017 q 53 715 53 853 q 81 599 53 647 q 152 523 108 551 q 244 479 196 494 q 347 456 293 464 l 572 418 q 710 369 664 403 q 757 271 757 335 q 683 147 757 192 q 489 103 610 103 q 372 113 428 103 q 272 149 317 124 q 199 219 226 175 q 169 326 171 263 l 22 326 z "},"‹":{"ha":464,"x_min":107,"x_max":357,"o":"m 107 314 l 357 129 l 357 269 l 192 386 l 357 503 l 357 643 l 107 458 l 107 314 z "},"Œ":{"ha":1621,"x_min":71,"x_max":1561,"o":"m 835 313 q 814 246 835 282 q 754 176 793 210 q 663 123 715 143 q 553 103 611 103 q 435 122 493 103 q 327 185 376 140 q 248 308 278 231 q 218 496 218 385 q 248 684 218 607 q 327 806 278 761 q 435 870 376 851 q 553 889 493 889 q 671 869 618 889 q 760 820 724 850 q 815 758 796 790 q 835 699 835 725 l 835 313 m 839 0 l 1561 0 l 1561 128 l 974 128 l 974 449 l 1531 449 l 1531 576 l 974 576 l 974 864 l 1550 864 l 1550 992 l 839 992 l 839 894 q 710 985 789 953 q 535 1017 632 1017 q 333 973 421 1017 q 188 853 246 929 q 100 685 129 778 q 71 496 71 593 q 100 306 71 399 q 188 138 129 214 q 333 19 246 63 q 535 -25 421 -25 q 706 10 628 -25 q 836 113 783 44 l 839 113 l 839 0 z "},"‘":{"ha":464,"x_min":146,"x_max":318,"o":"m 146 618 l 318 618 l 318 779 l 235 779 q 256 879 238 847 q 318 924 275 911 l 318 992 q 188 913 231 976 q 146 760 146 849 l 146 618 z "},"’":{"ha":464,"x_min":146,"x_max":318,"o":"m 146 618 q 276 697 233 633 q 318 850 318 761 l 318 992 l 146 992 l 146 831 l 229 831 q 208 731 228 763 q 146 686 189 699 l 146 618 z "},"“":{"ha":668,"x_min":101,"x_max":567,"o":"m 394 618 l 567 618 l 567 779 l 483 779 q 505 879 486 847 q 567 924 524 911 l 567 992 q 437 913 479 976 q 394 760 394 849 l 394 618 m 101 618 l 274 618 l 274 779 l 190 779 q 212 879 193 847 q 274 924 231 911 l 274 992 q 144 913 186 976 q 101 760 101 849 l 101 618 z "},"”":{"ha":668,"x_min":101,"x_max":567,"o":"m 394 618 q 524 697 482 633 q 567 850 567 761 l 567 992 l 394 992 l 394 831 l 478 831 q 457 731 476 763 q 394 686 438 699 l 394 618 m 101 618 q 231 697 189 633 q 274 850 274 761 l 274 992 l 101 992 l 101 831 l 185 831 q 164 731 183 763 q 101 686 144 699 l 101 618 z "},"•":{"ha":694,"x_min":100,"x_max":594,"o":"m 100 496 q 119 401 100 446 q 173 322 139 356 q 252 268 207 288 q 347 249 297 249 q 442 268 397 249 q 522 322 488 288 q 576 401 557 356 q 594 496 594 446 q 576 591 594 546 q 522 671 557 636 q 442 724 488 706 q 347 743 397 743 q 252 724 297 743 q 173 671 207 706 q 119 591 139 636 q 100 496 100 546 z "},"–":{"ha":694,"x_min":0,"x_max":694,"o":"m 0 328 l 694 328 l 694 444 l 0 444 l 0 328 z "},"—":{"ha":1389,"x_min":0,"x_max":1389,"o":"m 0 328 l 1389 328 l 1389 444 l 0 444 l 0 328 z "},"˜":{"ha":308,"x_min":-121,"x_max":429,"o":"m -39 846 q -16 894 -32 881 q 25 908 0 908 q 135 879 67 908 q 271 846 211 846 q 381 894 339 846 q 429 1017 422 942 l 347 1017 q 324 968 340 982 q 283 954 308 954 q 174 983 242 954 q 38 1017 97 1017 q -72 969 -31 1017 q -121 846 -114 921 l -39 846 z "},"™":{"ha":1375,"x_min":28,"x_max":1242,"o":"m 200 419 l 317 419 l 317 900 l 489 900 l 489 992 l 28 992 l 28 900 l 200 900 l 200 419 m 1133 419 l 1242 419 l 1242 992 l 1079 992 l 924 586 l 768 992 l 606 992 l 606 419 l 714 419 l 714 875 l 717 875 l 885 419 l 963 419 l 1131 875 l 1133 875 l 1133 419 z "},"š":{"ha":824,"x_min":43,"x_max":781,"o":"m 413 893 l 293 1015 l 158 1015 l 339 821 l 486 821 l 667 1015 l 532 1015 l 413 893 m 43 229 q 83 103 49 154 q 169 25 117 53 q 284 -14 222 -3 q 415 -25 346 -25 q 684 38 588 -25 q 781 224 781 100 q 721 351 781 303 q 526 417 661 399 l 329 443 q 233 474 258 453 q 208 533 208 494 q 225 586 208 564 q 269 621 242 608 q 331 639 297 633 q 400 644 364 644 q 559 606 503 644 q 618 508 615 568 l 757 508 q 660 687 747 621 q 401 753 572 753 q 158 690 247 753 q 69 518 69 628 q 126 387 69 438 q 267 325 183 336 l 496 294 q 604 261 575 283 q 633 197 633 239 q 623 156 633 176 q 588 119 613 136 q 519 93 563 103 q 411 83 475 83 q 303 97 349 83 q 232 131 258 110 q 194 178 206 153 q 182 229 182 203 l 43 229 z "},"›":{"ha":464,"x_min":107,"x_max":357,"o":"m 272 386 l 107 269 l 107 129 l 357 314 l 357 458 l 107 643 l 107 503 l 272 386 z "},"œ":{"ha":1543,"x_min":53,"x_max":1501,"o":"m 1501 322 l 1501 340 q 1475 506 1501 431 q 1398 638 1449 582 q 1274 723 1347 693 q 1108 753 1200 753 q 926 715 1003 753 q 792 603 850 676 q 647 717 732 681 q 463 753 561 753 q 301 726 376 753 q 171 649 226 700 q 84 526 115 599 q 53 364 53 453 q 77 213 53 283 q 151 89 101 142 q 278 6 200 36 q 463 -25 357 -25 q 647 13 565 -25 q 782 119 729 50 q 918 9 838 43 q 1107 -25 999 -25 q 1218 -11 1163 -25 q 1324 33 1274 3 q 1416 110 1375 63 q 1482 221 1457 158 l 1335 221 q 1291 159 1318 185 q 1229 118 1264 133 q 1100 92 1172 92 q 1015 103 1056 92 q 939 142 974 115 q 881 215 904 169 q 854 322 858 260 l 1501 322 m 724 371 q 656 172 724 251 q 458 92 588 92 q 272 167 343 92 q 200 363 200 243 q 269 560 200 483 q 464 636 339 636 q 649 565 574 636 q 724 371 724 493 m 854 431 q 936 583 869 529 q 1100 636 1003 636 q 1269 582 1200 636 q 1354 431 1339 528 l 854 431 z "},"Ÿ":{"ha":1003,"x_min":-8,"x_max":1011,"o":"m 265 1069 l 404 1069 l 404 1214 l 265 1214 l 265 1069 m 599 1069 l 738 1069 l 738 1214 l 599 1214 l 599 1069 m 503 540 l 179 992 l -8 992 l 426 408 l 426 0 l 574 0 l 574 415 l 1011 992 l 832 992 l 503 540 z "},"¡":{"ha":464,"x_min":146,"x_max":318,"o":"m 146 567 l 318 567 l 318 728 l 146 728 l 146 567 m 154 -264 l 310 -264 l 310 -4 l 272 467 l 192 467 l 154 -4 l 154 -264 z "},"¢":{"ha":928,"x_min":76,"x_max":851,"o":"m 432 94 q 276 180 328 107 q 224 364 224 253 q 276 549 224 476 q 432 635 329 622 l 432 94 m 432 -151 l 507 -151 l 507 -22 q 727 52 642 -15 q 851 267 813 119 l 704 267 q 636 142 683 183 q 507 94 589 100 l 507 635 q 641 590 592 629 q 701 485 690 551 l 849 485 q 738 676 829 608 q 507 751 646 744 l 507 879 l 432 879 l 432 751 q 169 630 261 739 q 76 360 76 521 q 97 224 76 289 q 159 105 117 158 q 270 17 201 51 q 432 -22 339 -17 l 432 -151 z "},"£":{"ha":928,"x_min":58,"x_max":869,"o":"m 58 432 l 178 432 q 202 374 193 406 q 211 317 211 342 q 173 191 211 244 q 58 93 135 138 l 122 -22 q 202 18 150 3 q 318 33 254 33 q 494 6 383 33 l 513 1 q 642 -22 604 -22 q 869 54 767 -22 l 831 176 q 731 124 782 143 q 636 106 681 106 q 535 124 614 106 q 438 143 476 136 q 367 150 400 150 q 235 125 300 150 l 232 128 q 318 218 286 161 q 350 328 350 275 q 325 432 350 379 l 586 432 l 586 515 l 293 515 q 259 590 269 550 q 249 660 249 629 q 312 812 249 754 q 481 869 375 869 q 658 813 597 869 q 722 665 718 757 l 869 665 q 770 901 869 815 q 490 986 671 986 q 319 960 393 986 q 197 890 246 935 q 125 792 149 846 q 101 681 101 738 q 113 591 101 635 q 146 515 125 547 l 58 515 l 58 432 z "},"¤":{"ha":928,"x_min":114,"x_max":814,"o":"m 692 482 q 674 390 692 433 q 626 315 657 347 q 553 264 594 282 q 464 246 511 246 q 376 264 418 246 q 302 315 333 282 q 253 390 271 347 q 236 482 236 433 q 253 574 236 531 q 302 649 271 617 q 376 700 333 682 q 464 718 418 718 q 553 700 511 718 q 626 649 594 682 q 674 574 657 617 q 692 482 692 531 m 114 197 l 181 131 l 257 208 q 353 156 300 175 q 464 138 407 138 q 669 208 582 138 l 747 131 l 814 197 l 738 275 q 790 372 772 318 q 808 482 808 425 q 790 592 808 539 q 738 689 772 646 l 814 767 l 747 833 l 671 757 q 574 808 628 790 q 464 826 521 826 q 353 808 407 826 q 257 757 300 790 l 181 833 l 114 767 l 190 690 q 138 594 157 647 q 119 482 119 540 q 190 274 119 367 l 114 197 z "},"¥":{"ha":928,"x_min":15,"x_max":915,"o":"m 467 513 l 203 964 l 15 964 l 324 488 l 126 488 l 126 404 l 378 404 l 390 385 l 390 283 l 126 283 l 126 200 l 390 200 l 390 0 l 538 0 l 538 200 l 801 200 l 801 283 l 538 283 l 538 385 l 550 404 l 801 404 l 801 488 l 604 488 l 915 964 l 736 964 l 467 513 z "},"¦":{"ha":308,"x_min":96,"x_max":213,"o":"m 96 -25 l 213 -25 l 213 364 l 96 364 l 96 -25 m 96 628 l 213 628 l 213 1017 l 96 1017 l 96 628 z "},"§":{"ha":928,"x_min":60,"x_max":868,"o":"m 121 7 q 137 -85 121 -39 q 192 -172 153 -132 q 302 -238 232 -212 q 474 -264 372 -264 q 708 -194 622 -264 q 793 -18 793 -125 q 722 135 793 88 q 833 222 799 168 q 868 340 868 276 q 818 472 868 419 q 686 558 768 525 l 360 690 q 278 789 278 724 q 319 871 278 842 q 451 900 361 900 q 639 760 631 900 l 778 760 q 687 950 778 883 q 458 1017 596 1017 q 229 953 319 1017 q 139 779 139 890 q 156 697 139 736 q 207 633 172 658 q 99 557 138 611 q 60 446 60 503 q 69 369 60 403 q 101 306 78 336 q 170 248 125 276 q 285 192 215 219 l 529 93 q 626 37 599 65 q 654 -32 654 8 q 607 -117 654 -86 q 471 -147 560 -147 q 324 -112 381 -147 q 260 7 268 -78 l 121 7 m 368 300 q 227 376 264 342 q 190 453 190 410 q 215 530 190 497 q 282 578 240 563 l 604 447 q 706 386 675 418 q 738 308 738 354 q 712 235 738 267 q 642 189 686 203 l 368 300 z "},"¨":{"ha":308,"x_min":-82,"x_max":390,"o":"m -82 847 l 57 847 l 57 992 l -82 992 l -82 847 m 251 847 l 390 847 l 390 992 l 251 992 l 251 847 z "},"©":{"ha":1111,"x_min":35,"x_max":1076,"o":"m 35 496 q 76 285 35 382 q 191 119 118 189 q 358 13 264 50 q 556 -25 453 -25 q 753 13 658 -25 q 920 119 847 50 q 1035 285 993 189 q 1076 496 1076 382 q 1035 706 1076 610 q 920 872 993 803 q 753 979 847 942 q 556 1017 658 1017 q 358 979 453 1017 q 191 872 264 942 q 76 706 118 803 q 35 496 35 610 m 960 496 q 928 333 960 408 q 842 202 897 258 q 713 115 786 146 q 556 83 639 83 q 398 115 472 83 q 269 201 324 146 q 183 333 214 257 q 151 496 151 408 q 183 659 151 583 q 269 791 214 735 q 398 878 324 847 q 556 908 472 908 q 713 878 639 908 q 842 791 786 847 q 928 659 897 735 q 960 496 960 583 m 710 406 q 665 323 703 353 q 574 293 628 293 q 447 352 494 293 q 399 499 399 411 q 443 647 399 590 q 568 704 488 704 q 660 675 622 704 q 710 597 699 646 l 822 597 q 739 756 808 699 q 571 813 669 813 q 360 724 439 813 q 282 499 282 636 q 303 375 282 432 q 363 275 324 318 q 456 208 401 232 q 575 185 510 185 q 740 244 669 185 q 826 406 810 303 l 710 406 z "},"ª":{"ha":585,"x_min":25,"x_max":571,"o":"m 138 832 q 178 893 139 875 q 281 911 217 911 q 372 898 339 911 q 406 850 406 885 q 328 807 406 814 l 222 797 q 71 754 117 788 q 25 661 25 721 q 33 612 25 635 q 63 569 42 589 q 123 537 85 549 q 217 525 161 525 q 335 545 278 525 q 418 599 392 565 q 444 553 424 567 q 500 540 464 540 q 524 543 506 540 q 571 547 556 546 l 571 610 q 546 607 563 607 q 506 640 506 607 l 506 865 q 486 924 506 900 q 434 962 467 949 q 363 981 401 975 q 283 986 325 986 q 113 951 171 986 q 46 832 54 915 l 138 832 m 406 722 q 353 634 406 668 q 228 600 300 600 q 154 617 183 600 q 125 661 125 635 q 149 700 125 686 q 222 721 174 714 l 311 733 q 378 745 360 740 q 403 761 396 750 l 406 761 l 406 722 z "},"«":{"ha":772,"x_min":107,"x_max":665,"o":"m 415 314 l 665 129 l 665 269 l 500 386 l 665 503 l 665 643 l 415 458 l 415 314 m 107 314 l 357 129 l 357 269 l 192 386 l 357 503 l 357 643 l 107 458 l 107 314 z "},"¬":{"ha":833,"x_min":65,"x_max":768,"o":"m 651 149 l 768 149 l 768 554 l 65 554 l 65 438 l 651 438 l 651 149 z "},"­":{"ha":833,"x_min":65,"x_max":768,"o":"m 65 293 l 768 293 l 768 410 l 65 410 l 65 293 z "},"−":{"ha":833,"x_min":65,"x_max":768,"o":"m 65 293 l 768 293 l 768 410 l 65 410 l 65 293 z "},"®":{"ha":1111,"x_min":35,"x_max":1076,"o":"m 35 496 q 76 285 35 382 q 191 119 118 189 q 358 13 264 50 q 556 -25 453 -25 q 753 13 658 -25 q 920 119 847 50 q 1035 285 993 189 q 1076 496 1076 382 q 1035 706 1076 610 q 920 872 993 803 q 753 979 847 942 q 556 1017 658 1017 q 358 979 453 1017 q 191 872 264 942 q 76 706 118 803 q 35 496 35 610 m 960 496 q 928 333 960 408 q 842 202 897 258 q 713 115 786 146 q 556 83 639 83 q 398 115 472 83 q 269 201 324 146 q 183 333 214 257 q 151 496 151 408 q 183 659 151 583 q 269 791 214 735 q 398 878 324 847 q 556 908 472 908 q 713 878 639 908 q 842 791 786 847 q 928 659 897 735 q 960 496 960 583 m 696 199 l 813 199 l 642 460 q 760 507 717 468 q 803 622 803 546 q 747 752 803 711 q 579 793 692 793 l 347 793 l 347 199 l 447 199 l 447 456 l 540 456 l 696 199 m 447 539 l 447 710 l 563 710 q 657 693 619 710 q 694 629 694 676 q 659 556 694 572 q 554 539 624 539 l 447 539 z "},"¯":{"ha":308,"x_min":-118,"x_max":426,"o":"m -118 874 l 426 874 l 426 982 l -118 982 l -118 874 z "},"°":{"ha":556,"x_min":79,"x_max":476,"o":"m 79 788 q 138 647 79 706 q 278 589 196 589 q 418 647 360 589 q 476 788 476 706 q 418 928 476 869 q 278 986 360 986 q 138 928 196 986 q 79 788 79 869 m 401 788 q 363 703 401 742 q 278 664 324 664 q 193 703 232 664 q 154 788 154 742 q 193 872 154 833 q 278 911 232 911 q 363 872 324 911 q 401 788 401 833 z "},"±":{"ha":833,"x_min":65,"x_max":768,"o":"m 358 492 l 65 492 l 65 375 l 358 375 l 358 164 l 475 164 l 475 375 l 768 375 l 768 492 l 475 492 l 475 703 l 358 703 l 358 492 m 65 0 l 768 0 l 768 117 l 65 117 l 65 0 z "},"²":{"ha":603,"x_min":33,"x_max":538,"o":"m 161 778 q 199 861 164 828 q 299 894 233 894 q 386 871 351 894 q 421 803 421 847 q 383 722 421 753 q 264 654 344 692 q 176 610 210 629 q 109 561 142 590 q 56 492 76 532 q 33 397 36 451 l 538 397 l 538 497 l 201 497 q 250 538 221 521 q 335 582 279 556 q 415 622 383 604 q 476 665 447 640 q 521 723 504 689 q 538 801 538 757 q 477 935 538 883 q 300 986 417 986 q 115 930 176 986 q 53 778 53 874 l 161 778 z "},"³":{"ha":603,"x_min":33,"x_max":546,"o":"m 239 657 q 250 657 243 657 q 292 658 269 658 q 392 633 356 658 q 429 561 429 607 q 292 472 429 472 q 181 494 217 472 q 142 578 146 515 l 33 578 q 64 468 33 510 q 139 408 94 426 q 222 385 183 389 q 300 381 261 381 q 426 400 376 381 q 502 450 476 419 q 537 513 528 481 q 546 576 546 544 q 511 660 546 622 q 424 706 476 697 l 424 708 q 494 751 471 718 q 518 826 518 783 q 460 940 518 893 q 288 986 401 986 q 119 938 182 986 q 50 794 56 890 l 158 794 q 190 870 161 846 q 285 894 218 894 q 369 878 338 894 q 401 821 401 863 q 376 763 401 785 q 299 742 350 742 q 239 743 250 742 l 239 657 z "},"´":{"ha":308,"x_min":71,"x_max":364,"o":"m 71 835 l 182 835 l 364 1029 l 190 1029 l 71 835 z "},"µ":{"ha":901,"x_min":85,"x_max":817,"o":"m 85 -281 l 224 -281 l 224 32 q 397 -25 290 -25 q 554 7 479 -25 q 675 110 629 39 l 678 110 l 678 0 l 817 0 l 817 728 l 678 728 l 678 308 q 608 149 678 206 q 439 92 539 92 q 276 135 329 92 q 224 260 224 178 l 224 728 l 85 728 l 85 -281 z "},"¶":{"ha":833,"x_min":40,"x_max":725,"o":"m 608 -239 l 725 -239 l 725 992 l 364 992 q 126 928 213 992 q 40 731 40 865 q 122 549 40 619 q 338 478 204 478 l 338 -239 l 454 -239 l 454 900 l 608 900 l 608 -239 z "},"·":{"ha":464,"x_min":129,"x_max":335,"o":"m 129 428 q 159 355 129 385 q 232 325 189 325 q 305 355 275 325 q 335 428 335 385 q 305 501 335 471 q 232 531 275 531 q 159 501 189 531 q 129 428 129 471 z "},"∙":{"ha":464,"x_min":129,"x_max":335,"o":"m 129 428 q 159 355 129 385 q 232 325 189 325 q 305 355 275 325 q 335 428 335 385 q 305 501 335 471 q 232 531 275 531 q 159 501 189 531 q 129 428 129 471 z "},"¸":{"ha":308,"x_min":31,"x_max":344,"o":"m 106 -142 q 169 -132 142 -132 q 213 -144 199 -132 q 228 -172 228 -157 q 206 -203 228 -192 q 153 -215 183 -215 q 98 -210 128 -215 q 49 -197 68 -204 l 31 -262 q 178 -282 131 -282 q 295 -253 246 -282 q 344 -164 344 -224 q 309 -97 344 -119 q 221 -74 274 -74 q 190 -76 210 -74 q 174 -79 182 -79 l 221 0 l 150 0 l 81 -115 l 106 -142 z "},"¹":{"ha":401,"x_min":-11,"x_max":274,"o":"m 157 397 l 274 397 l 274 986 l 181 986 q 122 901 171 921 q -11 881 74 881 l -11 797 l 157 797 l 157 397 z "},"º":{"ha":618,"x_min":35,"x_max":583,"o":"m 35 756 q 106 591 35 657 q 308 525 178 525 q 512 591 440 525 q 583 756 583 657 q 512 921 583 856 q 308 986 440 986 q 106 921 176 986 q 35 756 35 856 m 475 754 q 433 653 475 699 q 308 608 390 608 q 185 653 226 608 q 143 754 143 699 q 185 857 143 811 q 308 903 226 903 q 433 857 390 903 q 475 754 475 811 z "},"»":{"ha":772,"x_min":107,"x_max":665,"o":"m 272 386 l 107 269 l 107 129 l 357 314 l 357 458 l 107 643 l 107 503 l 272 386 m 581 386 l 415 269 l 415 129 l 665 314 l 665 458 l 415 643 l 415 503 l 581 386 z "},"¼":{"ha":1389,"x_min":33,"x_max":1324,"o":"m 1115 0 l 1224 0 l 1224 129 l 1324 129 l 1324 221 l 1224 221 l 1224 589 l 1132 589 l 793 217 l 793 129 l 1115 129 l 1115 0 m 1115 221 l 914 221 l 1113 447 l 1115 447 l 1115 221 m 201 397 l 318 397 l 318 986 l 225 986 q 167 901 215 921 q 33 881 118 881 l 33 797 l 201 797 l 201 397 m 274 -22 l 390 -22 l 942 986 l 825 986 l 274 -22 z "},"½":{"ha":1389,"x_min":33,"x_max":1324,"o":"m 201 397 l 318 397 l 318 986 l 225 986 q 167 901 215 921 q 33 881 118 881 l 33 797 l 201 797 l 201 397 m 276 -22 l 393 -22 l 944 986 l 828 986 l 276 -22 m 947 381 q 985 464 950 431 q 1085 497 1019 497 q 1172 474 1138 497 q 1207 406 1207 450 q 1169 325 1207 356 q 1050 257 1131 294 q 962 213 996 232 q 895 164 928 193 q 842 94 863 135 q 819 0 822 54 l 1324 0 l 1324 100 l 988 100 q 1036 141 1007 124 q 1121 185 1065 158 q 1201 225 1169 207 q 1262 267 1233 243 q 1307 326 1290 292 q 1324 404 1324 360 q 1263 538 1324 486 q 1086 589 1203 589 q 901 533 963 589 q 839 381 839 476 l 947 381 z "},"¾":{"ha":1389,"x_min":33,"x_max":1324,"o":"m 1115 0 l 1224 0 l 1224 129 l 1324 129 l 1324 221 l 1224 221 l 1224 589 l 1132 589 l 793 217 l 793 129 l 1115 129 l 1115 0 m 1115 221 l 914 221 l 1113 447 l 1115 447 l 1115 221 m 239 657 q 250 657 243 657 q 292 658 269 658 q 392 633 356 658 q 429 561 429 607 q 292 472 429 472 q 181 494 217 472 q 142 578 146 515 l 33 578 q 64 468 33 510 q 139 408 94 426 q 222 385 183 389 q 300 381 261 381 q 426 400 376 381 q 502 450 476 419 q 537 513 528 481 q 546 576 546 544 q 511 660 546 622 q 424 706 476 697 l 424 708 q 494 751 471 718 q 518 826 518 783 q 460 940 518 893 q 288 986 401 986 q 119 938 182 986 q 50 794 56 890 l 158 794 q 190 870 161 846 q 285 894 218 894 q 369 878 338 894 q 401 821 401 863 q 376 763 401 785 q 299 742 350 742 q 239 743 250 742 l 239 657 m 368 -22 l 485 -22 l 1036 986 l 919 986 l 368 -22 z "},"¿":{"ha":928,"x_min":118,"x_max":847,"o":"m 708 44 q 640 -115 704 -57 q 474 -172 576 -172 q 324 -127 382 -172 q 265 10 265 -82 q 299 113 265 74 q 400 200 332 153 q 467 250 440 228 q 517 302 493 272 q 554 373 540 332 q 568 467 568 414 l 438 467 q 403 371 438 410 q 297 279 368 332 q 226 225 254 249 q 174 171 199 201 q 133 101 149 140 q 118 11 118 61 q 218 -210 118 -132 q 468 -289 318 -289 q 597 -274 533 -289 q 715 -221 660 -258 q 807 -117 771 -183 q 847 44 843 -51 l 708 44 m 417 567 l 589 567 l 589 728 l 417 728 l 417 567 z "},"À":{"ha":1054,"x_min":-6,"x_max":1060,"o":"m 500 1057 l 611 1057 l 492 1251 l 318 1251 l 500 1057 m 711 417 l 335 417 l 521 856 l 711 417 m 892 0 l 1060 0 l 611 992 l 443 992 l -6 0 l 153 0 l 279 289 l 765 289 l 892 0 z "},"Á":{"ha":1054,"x_min":-6,"x_max":1060,"o":"m 444 1057 l 556 1057 l 738 1251 l 564 1251 l 444 1057 m 711 417 l 335 417 l 521 856 l 711 417 m 892 0 l 1060 0 l 611 992 l 443 992 l -6 0 l 153 0 l 279 289 l 765 289 l 892 0 z "},"Â":{"ha":1054,"x_min":-6,"x_max":1060,"o":"m 647 1057 l 782 1057 l 601 1251 l 454 1251 l 274 1057 l 408 1057 l 528 1179 l 647 1057 m 711 417 l 335 417 l 521 856 l 711 417 m 892 0 l 1060 0 l 611 992 l 443 992 l -6 0 l 153 0 l 279 289 l 765 289 l 892 0 z "},"Ã":{"ha":1054,"x_min":-6,"x_max":1060,"o":"m 335 1068 q 358 1117 342 1103 q 399 1131 374 1131 q 508 1101 440 1131 q 644 1068 585 1068 q 754 1116 713 1068 q 803 1239 796 1164 l 721 1239 q 698 1190 714 1204 q 657 1176 682 1176 q 547 1206 615 1176 q 411 1239 471 1239 q 301 1191 343 1239 q 253 1068 260 1143 l 335 1068 m 711 417 l 335 417 l 521 856 l 711 417 m 892 0 l 1060 0 l 611 992 l 443 992 l -6 0 l 153 0 l 279 289 l 765 289 l 892 0 z "},"Ä":{"ha":1054,"x_min":-6,"x_max":1060,"o":"m 292 1069 l 431 1069 l 431 1214 l 292 1214 l 292 1069 m 625 1069 l 764 1069 l 764 1214 l 625 1214 l 625 1069 m 711 417 l 335 417 l 521 856 l 711 417 m 892 0 l 1060 0 l 611 992 l 443 992 l -6 0 l 153 0 l 279 289 l 765 289 l 892 0 z "},"Å":{"ha":1054,"x_min":-6,"x_max":1060,"o":"m 365 1175 q 413 1060 365 1107 q 528 1013 460 1013 q 643 1060 596 1013 q 690 1175 690 1107 q 643 1290 690 1243 q 528 1338 596 1338 q 413 1290 460 1338 q 365 1175 365 1243 m 615 1175 q 589 1114 615 1140 q 528 1088 563 1088 q 467 1114 493 1088 q 440 1175 440 1140 q 467 1236 440 1210 q 528 1263 493 1263 q 589 1236 563 1263 q 615 1175 615 1210 m 711 417 l 335 417 l 521 856 l 711 417 m 892 0 l 1060 0 l 611 992 l 443 992 l -6 0 l 153 0 l 279 289 l 765 289 l 892 0 z "},"Æ":{"ha":1543,"x_min":-46,"x_max":1483,"o":"m 731 417 l 381 417 l 661 864 l 731 864 l 731 417 m 731 0 l 1483 0 l 1483 128 l 869 128 l 869 449 l 1457 449 l 1457 576 l 869 576 l 869 864 l 1476 864 l 1476 992 l 579 992 l -46 0 l 121 0 l 301 289 l 731 289 l 731 0 z "},"Ç":{"ha":1132,"x_min":53,"x_max":1069,"o":"m 922 379 q 801 171 892 239 q 575 103 711 103 q 404 135 476 103 q 287 221 332 167 q 221 342 242 275 q 200 483 200 410 q 301 785 200 682 q 583 889 403 889 q 818 817 732 889 q 922 635 904 746 l 1069 635 q 1013 815 1061 740 q 891 935 964 890 q 735 998 818 979 q 572 1017 653 1017 q 351 977 449 1017 q 187 867 253 938 q 87 703 121 797 q 53 499 53 608 q 94 265 53 364 q 207 103 136 167 q 365 10 278 40 q 549 -24 453 -21 l 493 -115 l 518 -142 q 582 -132 554 -132 q 626 -144 611 -132 q 640 -172 640 -157 q 618 -203 640 -192 q 565 -215 596 -215 q 510 -210 540 -215 q 461 -197 481 -204 l 443 -262 q 590 -282 543 -282 q 708 -253 658 -282 q 757 -164 757 -224 q 722 -97 757 -119 q 633 -74 686 -74 q 603 -76 622 -74 q 586 -79 594 -79 l 619 -24 q 794 17 714 -17 q 932 106 874 51 q 1026 231 990 161 q 1069 379 1061 301 l 922 379 z "},"È":{"ha":978,"x_min":107,"x_max":918,"o":"m 489 1057 l 600 1057 l 481 1251 l 307 1251 l 489 1057 m 107 0 l 918 0 l 918 128 l 254 128 l 254 449 l 885 449 l 885 576 l 254 576 l 254 864 l 904 864 l 904 992 l 107 992 l 107 0 z "},"É":{"ha":978,"x_min":107,"x_max":918,"o":"m 433 1057 l 544 1057 l 726 1251 l 553 1251 l 433 1057 m 107 0 l 918 0 l 918 128 l 254 128 l 254 449 l 885 449 l 885 576 l 254 576 l 254 864 l 904 864 l 904 992 l 107 992 l 107 0 z "},"Ê":{"ha":978,"x_min":107,"x_max":918,"o":"m 636 1057 l 771 1057 l 590 1251 l 443 1251 l 263 1057 l 397 1057 l 517 1179 l 636 1057 m 107 0 l 918 0 l 918 128 l 254 128 l 254 449 l 885 449 l 885 576 l 254 576 l 254 864 l 904 864 l 904 992 l 107 992 l 107 0 z "},"Ë":{"ha":978,"x_min":107,"x_max":918,"o":"m 281 1069 l 419 1069 l 419 1214 l 281 1214 l 281 1069 m 614 1069 l 753 1069 l 753 1214 l 614 1214 l 614 1069 m 107 0 l 918 0 l 918 128 l 254 128 l 254 449 l 885 449 l 885 576 l 254 576 l 254 864 l 904 864 l 904 992 l 107 992 l 107 0 z "},"Ì":{"ha":386,"x_min":-17,"x_max":276,"o":"m 165 1057 l 276 1057 l 157 1251 l -17 1251 l 165 1057 m 119 0 l 267 0 l 267 992 l 119 992 l 119 0 z "},"Í":{"ha":386,"x_min":110,"x_max":403,"o":"m 110 1057 l 221 1057 l 403 1251 l 229 1251 l 110 1057 m 119 0 l 267 0 l 267 992 l 119 992 l 119 0 z "},"Î":{"ha":386,"x_min":-61,"x_max":447,"o":"m 313 1057 l 447 1057 l 267 1251 l 119 1251 l -61 1057 l 74 1057 l 193 1179 l 313 1057 m 119 0 l 267 0 l 267 992 l 119 992 l 119 0 z "},"Ï":{"ha":386,"x_min":-43,"x_max":429,"o":"m -43 1069 l 96 1069 l 96 1214 l -43 1214 l -43 1069 m 290 1069 l 429 1069 l 429 1214 l 290 1214 l 290 1069 m 119 0 l 267 0 l 267 992 l 119 992 l 119 0 z "},"Ð":{"ha":1106,"x_min":10,"x_max":1043,"o":"m 107 582 l 10 582 l 10 482 l 107 482 l 107 0 l 618 0 q 810 40 729 0 q 943 149 892 79 q 1019 311 994 219 q 1043 510 1043 403 q 935 863 1043 733 q 610 992 826 992 l 107 992 l 107 582 m 254 582 l 254 864 l 583 864 q 737 835 675 864 q 833 755 799 806 q 882 642 868 704 q 896 507 896 579 q 884 367 896 432 q 842 247 872 301 q 754 160 811 193 q 611 128 697 128 l 254 128 l 254 482 l 574 482 l 574 582 l 254 582 z "},"Ñ":{"ha":1183,"x_min":113,"x_max":1071,"o":"m 399 1068 q 422 1117 406 1103 q 463 1131 438 1131 q 572 1101 504 1131 q 708 1068 649 1068 q 818 1116 776 1068 q 867 1239 860 1164 l 785 1239 q 762 1190 778 1204 q 721 1176 746 1176 q 611 1206 679 1176 q 475 1239 535 1239 q 365 1191 407 1239 q 317 1068 324 1143 l 399 1068 m 900 0 l 1071 0 l 1071 992 l 924 992 l 924 203 l 921 203 l 283 992 l 113 992 l 113 0 l 260 0 l 260 789 l 263 789 l 900 0 z "},"Ò":{"ha":1208,"x_min":53,"x_max":1156,"o":"m 576 1057 l 688 1057 l 568 1251 l 394 1251 l 576 1057 m 53 496 q 84 303 53 396 q 182 137 115 211 q 355 19 249 63 q 604 -25 461 -25 q 853 19 747 -25 q 1026 137 960 63 q 1124 303 1093 211 q 1156 496 1156 396 q 1124 688 1156 596 q 1026 855 1093 781 q 853 973 960 929 q 604 1017 747 1017 q 355 973 461 1017 q 182 855 249 929 q 84 688 115 781 q 53 496 53 596 m 1008 496 q 895 205 1008 307 q 604 103 782 103 q 313 205 426 103 q 200 496 200 307 q 313 788 200 686 q 604 889 426 889 q 895 788 782 889 q 1008 496 1008 686 z "},"Ó":{"ha":1208,"x_min":53,"x_max":1156,"o":"m 521 1057 l 632 1057 l 814 1251 l 640 1251 l 521 1057 m 53 496 q 84 303 53 396 q 182 137 115 211 q 355 19 249 63 q 604 -25 461 -25 q 853 19 747 -25 q 1026 137 960 63 q 1124 303 1093 211 q 1156 496 1156 396 q 1124 688 1156 596 q 1026 855 1093 781 q 853 973 960 929 q 604 1017 747 1017 q 355 973 461 1017 q 182 855 249 929 q 84 688 115 781 q 53 496 53 596 m 1008 496 q 895 205 1008 307 q 604 103 782 103 q 313 205 426 103 q 200 496 200 307 q 313 788 200 686 q 604 889 426 889 q 895 788 782 889 q 1008 496 1008 686 z "},"Ô":{"ha":1208,"x_min":53,"x_max":1156,"o":"m 724 1057 l 858 1057 l 678 1251 l 531 1251 l 350 1057 l 485 1057 l 604 1179 l 724 1057 m 53 496 q 84 303 53 396 q 182 137 115 211 q 355 19 249 63 q 604 -25 461 -25 q 853 19 747 -25 q 1026 137 960 63 q 1124 303 1093 211 q 1156 496 1156 396 q 1124 688 1156 596 q 1026 855 1093 781 q 853 973 960 929 q 604 1017 747 1017 q 355 973 461 1017 q 182 855 249 929 q 84 688 115 781 q 53 496 53 596 m 1008 496 q 895 205 1008 307 q 604 103 782 103 q 313 205 426 103 q 200 496 200 307 q 313 788 200 686 q 604 889 426 889 q 895 788 782 889 q 1008 496 1008 686 z "},"Õ":{"ha":1208,"x_min":53,"x_max":1156,"o":"m 411 1068 q 434 1117 418 1103 q 475 1131 450 1131 q 585 1101 517 1131 q 721 1068 661 1068 q 831 1116 789 1068 q 879 1239 872 1164 l 797 1239 q 774 1190 790 1204 q 733 1176 758 1176 q 624 1206 692 1176 q 488 1239 547 1239 q 378 1191 419 1239 q 329 1068 336 1143 l 411 1068 m 53 496 q 84 303 53 396 q 182 137 115 211 q 355 19 249 63 q 604 -25 461 -25 q 853 19 747 -25 q 1026 137 960 63 q 1124 303 1093 211 q 1156 496 1156 396 q 1124 688 1156 596 q 1026 855 1093 781 q 853 973 960 929 q 604 1017 747 1017 q 355 973 461 1017 q 182 855 249 929 q 84 688 115 781 q 53 496 53 596 m 1008 496 q 895 205 1008 307 q 604 103 782 103 q 313 205 426 103 q 200 496 200 307 q 313 788 200 686 q 604 889 426 889 q 895 788 782 889 q 1008 496 1008 686 z "},"Ö":{"ha":1208,"x_min":53,"x_max":1156,"o":"m 368 1069 l 507 1069 l 507 1214 l 368 1214 l 368 1069 m 701 1069 l 840 1069 l 840 1214 l 701 1214 l 701 1069 m 53 496 q 84 303 53 396 q 182 137 115 211 q 355 19 249 63 q 604 -25 461 -25 q 853 19 747 -25 q 1026 137 960 63 q 1124 303 1093 211 q 1156 496 1156 396 q 1124 688 1156 596 q 1026 855 1093 781 q 853 973 960 929 q 604 1017 747 1017 q 355 973 461 1017 q 182 855 249 929 q 84 688 115 781 q 53 496 53 596 m 1008 496 q 895 205 1008 307 q 604 103 782 103 q 313 205 426 103 q 200 496 200 307 q 313 788 200 686 q 604 889 426 889 q 895 788 782 889 q 1008 496 1008 686 z "},"×":{"ha":833,"x_min":97,"x_max":736,"o":"m 339 351 l 97 110 l 175 32 l 415 275 l 658 32 l 736 110 l 493 351 l 736 593 l 658 671 l 415 429 l 175 671 l 97 593 l 339 351 z "},"Ø":{"ha":1208,"x_min":50,"x_max":1158,"o":"m 928 753 q 1008 496 1008 653 q 895 205 1008 307 q 604 103 782 103 q 332 189 439 103 l 928 753 m 281 240 q 200 496 200 342 q 313 788 200 686 q 604 889 426 889 q 876 803 769 889 l 281 240 m 99 -31 l 229 93 q 390 6 296 36 q 604 -25 483 -25 q 853 19 747 -25 q 1026 137 960 63 q 1124 303 1093 211 q 1156 496 1156 396 q 1125 687 1156 594 q 1031 850 1094 779 l 1158 971 l 1108 1022 l 979 900 q 817 986 911 956 q 604 1017 724 1017 q 355 973 461 1017 q 182 855 249 929 q 84 688 115 781 q 53 496 53 596 q 83 306 53 397 q 178 143 114 214 l 50 22 l 99 -31 z "},"Ù":{"ha":1106,"x_min":104,"x_max":1001,"o":"m 525 1057 l 636 1057 l 517 1251 l 343 1251 l 525 1057 m 104 375 q 553 -25 104 -25 q 1001 375 1001 -25 l 1001 992 l 854 992 l 854 357 q 774 165 854 228 q 553 103 694 103 q 331 165 411 103 q 251 357 251 228 l 251 992 l 104 992 l 104 375 z "},"Ú":{"ha":1106,"x_min":104,"x_max":1001,"o":"m 469 1057 l 581 1057 l 763 1251 l 589 1251 l 469 1057 m 104 375 q 553 -25 104 -25 q 1001 375 1001 -25 l 1001 992 l 854 992 l 854 357 q 774 165 854 228 q 553 103 694 103 q 331 165 411 103 q 251 357 251 228 l 251 992 l 104 992 l 104 375 z "},"Û":{"ha":1106,"x_min":104,"x_max":1001,"o":"m 672 1057 l 807 1057 l 626 1251 l 479 1251 l 299 1057 l 433 1057 l 553 1179 l 672 1057 m 104 375 q 553 -25 104 -25 q 1001 375 1001 -25 l 1001 992 l 854 992 l 854 357 q 774 165 854 228 q 553 103 694 103 q 331 165 411 103 q 251 357 251 228 l 251 992 l 104 992 l 104 375 z "},"Ü":{"ha":1106,"x_min":104,"x_max":1001,"o":"m 317 1069 l 456 1069 l 456 1214 l 317 1214 l 317 1069 m 650 1069 l 789 1069 l 789 1214 l 650 1214 l 650 1069 m 104 375 q 553 -25 104 -25 q 1001 375 1001 -25 l 1001 992 l 854 992 l 854 357 q 774 165 854 228 q 553 103 694 103 q 331 165 411 103 q 251 357 251 228 l 251 992 l 104 992 l 104 375 z "},"Ý":{"ha":1003,"x_min":-8,"x_max":1011,"o":"m 418 1057 l 529 1057 l 711 1251 l 538 1251 l 418 1057 m 503 540 l 179 992 l -8 992 l 426 408 l 426 0 l 574 0 l 574 415 l 1011 992 l 832 992 l 503 540 z "},"Þ":{"ha":1003,"x_min":113,"x_max":956,"o":"m 113 0 l 260 0 l 260 229 l 633 229 q 872 313 788 229 q 956 539 956 397 q 871 751 956 678 q 624 824 786 824 l 260 824 l 260 992 l 113 992 l 113 0 m 260 357 l 260 696 l 640 696 q 765 653 722 696 q 808 536 808 610 q 763 406 808 454 q 614 357 717 357 l 260 357 z "},"ß":{"ha":900,"x_min":99,"x_max":847,"o":"m 386 488 l 525 482 q 647 431 593 478 q 700 296 700 383 q 640 149 700 206 q 464 92 581 92 q 379 99 432 92 l 379 -18 q 439 -24 415 -22 q 488 -25 463 -25 q 641 0 574 -25 q 756 69 708 25 q 847 290 847 157 q 796 472 847 408 q 661 557 744 535 l 661 560 q 766 638 733 585 q 799 756 799 690 q 709 942 799 868 q 449 1017 619 1017 q 310 1001 374 1017 q 200 951 247 985 q 126 863 153 917 q 99 735 99 808 l 99 0 l 238 0 l 238 722 q 291 853 238 807 q 451 900 344 900 q 596 861 540 900 q 651 750 651 822 q 607 642 651 682 q 463 601 563 601 q 414 602 428 601 q 386 604 400 603 l 386 488 z "},"à":{"ha":900,"x_min":51,"x_max":890,"o":"m 422 821 l 533 821 l 414 1015 l 240 1015 l 422 821 m 214 500 q 278 612 217 579 q 439 644 339 644 q 522 640 485 644 q 588 622 558 635 q 633 585 617 608 q 649 525 649 561 q 619 462 649 479 q 522 438 589 444 l 364 421 q 122 350 192 403 q 51 194 51 297 q 65 117 51 154 q 110 47 78 79 q 202 -5 143 15 q 347 -25 261 -25 q 528 7 440 -25 q 657 93 617 39 q 694 13 664 35 q 782 -8 725 -8 q 890 0 840 -8 l 890 97 q 842 92 863 92 q 779 154 779 92 l 779 546 q 749 647 779 606 q 671 712 719 689 q 564 744 622 735 q 444 753 506 753 q 187 693 276 753 q 83 500 97 633 l 214 500 m 649 288 q 626 206 649 243 q 563 140 603 168 q 471 98 524 113 q 360 83 418 83 q 238 115 285 83 q 190 199 190 147 q 230 281 190 254 q 356 318 269 307 l 513 338 q 603 355 574 346 q 649 381 633 364 l 649 288 z "},"á":{"ha":900,"x_min":51,"x_max":890,"o":"m 367 821 l 478 821 l 660 1015 l 486 1015 l 367 821 m 214 500 q 278 612 217 579 q 439 644 339 644 q 522 640 485 644 q 588 622 558 635 q 633 585 617 608 q 649 525 649 561 q 619 462 649 479 q 522 438 589 444 l 364 421 q 122 350 192 403 q 51 194 51 297 q 65 117 51 154 q 110 47 78 79 q 202 -5 143 15 q 347 -25 261 -25 q 528 7 440 -25 q 657 93 617 39 q 694 13 664 35 q 782 -8 725 -8 q 890 0 840 -8 l 890 97 q 842 92 863 92 q 779 154 779 92 l 779 546 q 749 647 779 606 q 671 712 719 689 q 564 744 622 735 q 444 753 506 753 q 187 693 276 753 q 83 500 97 633 l 214 500 m 649 288 q 626 206 649 243 q 563 140 603 168 q 471 98 524 113 q 360 83 418 83 q 238 115 285 83 q 190 199 190 147 q 230 281 190 254 q 356 318 269 307 l 513 338 q 603 355 574 346 q 649 381 633 364 l 649 288 z "},"â":{"ha":900,"x_min":51,"x_max":890,"o":"m 569 821 l 704 821 l 524 1015 l 376 1015 l 196 821 l 331 821 l 450 943 l 569 821 m 214 500 q 278 612 217 579 q 439 644 339 644 q 522 640 485 644 q 588 622 558 635 q 633 585 617 608 q 649 525 649 561 q 619 462 649 479 q 522 438 589 444 l 364 421 q 122 350 192 403 q 51 194 51 297 q 65 117 51 154 q 110 47 78 79 q 202 -5 143 15 q 347 -25 261 -25 q 528 7 440 -25 q 657 93 617 39 q 694 13 664 35 q 782 -8 725 -8 q 890 0 840 -8 l 890 97 q 842 92 863 92 q 779 154 779 92 l 779 546 q 749 647 779 606 q 671 712 719 689 q 564 744 622 735 q 444 753 506 753 q 187 693 276 753 q 83 500 97 633 l 214 500 m 649 288 q 626 206 649 243 q 563 140 603 168 q 471 98 524 113 q 360 83 418 83 q 238 115 285 83 q 190 199 190 147 q 230 281 190 254 q 356 318 269 307 l 513 338 q 603 355 574 346 q 649 381 633 364 l 649 288 z "},"ã":{"ha":900,"x_min":51,"x_max":890,"o":"m 257 832 q 280 881 264 867 q 321 894 296 894 q 431 865 363 894 q 567 832 507 832 q 676 880 635 832 q 725 1003 718 928 l 643 1003 q 620 954 636 968 q 579 940 604 940 q 469 969 538 940 q 333 1003 393 1003 q 224 955 265 1003 q 175 832 182 907 l 257 832 m 214 500 q 278 612 217 579 q 439 644 339 644 q 522 640 485 644 q 588 622 558 635 q 633 585 617 608 q 649 525 649 561 q 619 462 649 479 q 522 438 589 444 l 364 421 q 122 350 192 403 q 51 194 51 297 q 65 117 51 154 q 110 47 78 79 q 202 -5 143 15 q 347 -25 261 -25 q 528 7 440 -25 q 657 93 617 39 q 694 13 664 35 q 782 -8 725 -8 q 890 0 840 -8 l 890 97 q 842 92 863 92 q 779 154 779 92 l 779 546 q 749 647 779 606 q 671 712 719 689 q 564 744 622 735 q 444 753 506 753 q 187 693 276 753 q 83 500 97 633 l 214 500 m 649 288 q 626 206 649 243 q 563 140 603 168 q 471 98 524 113 q 360 83 418 83 q 238 115 285 83 q 190 199 190 147 q 230 281 190 254 q 356 318 269 307 l 513 338 q 603 355 574 346 q 649 381 633 364 l 649 288 z "},"ä":{"ha":900,"x_min":51,"x_max":890,"o":"m 214 833 l 353 833 l 353 978 l 214 978 l 214 833 m 547 833 l 686 833 l 686 978 l 547 978 l 547 833 m 214 500 q 278 612 217 579 q 439 644 339 644 q 522 640 485 644 q 588 622 558 635 q 633 585 617 608 q 649 525 649 561 q 619 462 649 479 q 522 438 589 444 l 364 421 q 122 350 192 403 q 51 194 51 297 q 65 117 51 154 q 110 47 78 79 q 202 -5 143 15 q 347 -25 261 -25 q 528 7 440 -25 q 657 93 617 39 q 694 13 664 35 q 782 -8 725 -8 q 890 0 840 -8 l 890 97 q 842 92 863 92 q 779 154 779 92 l 779 546 q 749 647 779 606 q 671 712 719 689 q 564 744 622 735 q 444 753 506 753 q 187 693 276 753 q 83 500 97 633 l 214 500 m 649 288 q 626 206 649 243 q 563 140 603 168 q 471 98 524 113 q 360 83 418 83 q 238 115 285 83 q 190 199 190 147 q 230 281 190 254 q 356 318 269 307 l 513 338 q 603 355 574 346 q 649 381 633 364 l 649 288 z "},"å":{"ha":900,"x_min":51,"x_max":890,"o":"m 288 953 q 335 838 288 885 q 450 790 382 790 q 565 838 518 790 q 613 953 613 885 q 565 1068 613 1021 q 450 1115 518 1115 q 335 1068 382 1115 q 288 953 288 1021 m 538 953 q 511 892 538 918 q 450 865 485 865 q 389 892 415 865 q 363 953 363 918 q 389 1014 363 988 q 450 1040 415 1040 q 511 1014 485 1040 q 538 953 538 988 m 214 500 q 278 612 217 579 q 439 644 339 644 q 522 640 485 644 q 588 622 558 635 q 633 585 617 608 q 649 525 649 561 q 619 462 649 479 q 522 438 589 444 l 364 421 q 122 350 192 403 q 51 194 51 297 q 65 117 51 154 q 110 47 78 79 q 202 -5 143 15 q 347 -25 261 -25 q 528 7 440 -25 q 657 93 617 39 q 694 13 664 35 q 782 -8 725 -8 q 890 0 840 -8 l 890 97 q 842 92 863 92 q 779 154 779 92 l 779 546 q 749 647 779 606 q 671 712 719 689 q 564 744 622 735 q 444 753 506 753 q 187 693 276 753 q 83 500 97 633 l 214 500 m 649 288 q 626 206 649 243 q 563 140 603 168 q 471 98 524 113 q 360 83 418 83 q 238 115 285 83 q 190 199 190 147 q 230 281 190 254 q 356 318 269 307 l 513 338 q 603 355 574 346 q 649 381 633 364 l 649 288 z "},"æ":{"ha":1492,"x_min":51,"x_max":1435,"o":"m 1435 322 l 1435 340 q 1408 506 1435 431 q 1331 638 1382 582 q 1207 723 1281 693 q 1042 753 1133 753 q 881 722 957 753 q 754 631 804 692 q 626 725 704 697 q 444 753 547 753 q 187 693 276 753 q 83 500 97 633 l 214 500 q 278 612 217 579 q 439 644 339 644 q 522 640 485 644 q 588 622 558 635 q 633 585 617 608 q 649 525 649 561 q 619 462 649 479 q 522 438 589 444 l 356 421 q 121 351 190 404 q 51 194 51 299 q 65 117 51 154 q 110 47 78 79 q 202 -5 143 15 q 347 -25 261 -25 q 483 -9 422 -25 q 587 31 544 7 q 656 82 629 56 q 699 133 683 108 q 844 8 758 40 q 1040 -25 929 -25 q 1151 -11 1096 -25 q 1258 33 1207 3 q 1349 110 1308 63 q 1415 221 1390 158 l 1268 221 q 1224 159 1251 185 q 1163 118 1197 133 q 1035 92 1106 92 q 854 149 915 92 q 779 322 793 207 l 1435 322 m 779 431 q 865 581 794 526 q 1033 636 936 636 q 1203 582 1133 636 q 1288 431 1272 528 l 779 431 m 649 288 q 626 206 649 243 q 563 140 603 168 q 471 98 524 113 q 360 83 418 83 q 238 115 285 83 q 190 199 190 147 q 235 284 190 256 q 375 319 281 313 l 513 329 q 583 338 553 332 q 649 353 613 343 l 649 288 z "},"ç":{"ha":875,"x_min":53,"x_max":828,"o":"m 681 267 q 604 134 658 176 q 457 92 550 92 q 265 166 329 92 q 200 364 200 240 q 265 562 200 488 q 457 636 329 636 q 609 597 553 636 q 678 485 665 557 l 825 485 q 701 684 804 615 q 447 753 599 753 q 277 723 351 753 q 151 638 203 693 q 53 360 53 531 q 74 222 53 288 q 138 101 94 156 q 253 14 182 47 q 419 -24 324 -19 l 364 -115 l 389 -142 q 453 -132 425 -132 q 497 -144 482 -132 q 511 -172 511 -157 q 489 -203 511 -192 q 436 -215 467 -215 q 381 -210 411 -215 q 332 -197 351 -204 l 314 -262 q 461 -282 414 -282 q 578 -253 529 -282 q 628 -164 628 -224 q 592 -97 628 -119 q 504 -74 557 -74 q 474 -76 493 -74 q 457 -79 465 -79 l 490 -22 q 705 53 621 -15 q 828 267 789 121 l 681 267 z "},"è":{"ha":926,"x_min":53,"x_max":869,"o":"m 436 821 l 547 821 l 428 1015 l 254 1015 l 436 821 m 869 322 l 869 340 q 836 528 869 449 q 747 658 803 608 q 620 730 690 707 q 475 753 550 753 q 292 722 372 753 q 159 638 213 692 q 79 515 106 585 q 53 364 53 444 q 79 213 53 283 q 159 90 106 143 q 292 6 213 36 q 475 -25 372 -25 q 586 -11 531 -25 q 692 33 642 3 q 784 110 743 63 q 850 221 825 158 l 703 221 q 659 159 686 185 q 597 118 632 133 q 468 92 540 92 q 375 107 421 92 q 291 152 329 122 q 228 225 253 182 q 200 322 204 268 l 869 322 m 204 431 q 294 581 219 525 q 468 636 369 636 q 638 582 568 636 q 722 431 707 528 l 204 431 z "},"é":{"ha":926,"x_min":53,"x_max":869,"o":"m 381 821 l 492 821 l 674 1015 l 500 1015 l 381 821 m 869 322 l 869 340 q 836 528 869 449 q 747 658 803 608 q 620 730 690 707 q 475 753 550 753 q 292 722 372 753 q 159 638 213 692 q 79 515 106 585 q 53 364 53 444 q 79 213 53 283 q 159 90 106 143 q 292 6 213 36 q 475 -25 372 -25 q 586 -11 531 -25 q 692 33 642 3 q 784 110 743 63 q 850 221 825 158 l 703 221 q 659 159 686 185 q 597 118 632 133 q 468 92 540 92 q 375 107 421 92 q 291 152 329 122 q 228 225 253 182 q 200 322 204 268 l 869 322 m 204 431 q 294 581 219 525 q 468 636 369 636 q 638 582 568 636 q 722 431 707 528 l 204 431 z "},"ê":{"ha":926,"x_min":53,"x_max":869,"o":"m 583 821 l 718 821 l 538 1015 l 390 1015 l 210 821 l 344 821 l 464 943 l 583 821 m 869 322 l 869 340 q 836 528 869 449 q 747 658 803 608 q 620 730 690 707 q 475 753 550 753 q 292 722 372 753 q 159 638 213 692 q 79 515 106 585 q 53 364 53 444 q 79 213 53 283 q 159 90 106 143 q 292 6 213 36 q 475 -25 372 -25 q 586 -11 531 -25 q 692 33 642 3 q 784 110 743 63 q 850 221 825 158 l 703 221 q 659 159 686 185 q 597 118 632 133 q 468 92 540 92 q 375 107 421 92 q 291 152 329 122 q 228 225 253 182 q 200 322 204 268 l 869 322 m 204 431 q 294 581 219 525 q 468 636 369 636 q 638 582 568 636 q 722 431 707 528 l 204 431 z "},"ë":{"ha":926,"x_min":53,"x_max":869,"o":"m 228 833 l 367 833 l 367 978 l 228 978 l 228 833 m 561 833 l 700 833 l 700 978 l 561 978 l 561 833 m 869 322 l 869 340 q 836 528 869 449 q 747 658 803 608 q 620 730 690 707 q 475 753 550 753 q 292 722 372 753 q 159 638 213 692 q 79 515 106 585 q 53 364 53 444 q 79 213 53 283 q 159 90 106 143 q 292 6 213 36 q 475 -25 372 -25 q 586 -11 531 -25 q 692 33 642 3 q 784 110 743 63 q 850 221 825 158 l 703 221 q 659 159 686 185 q 597 118 632 133 q 468 92 540 92 q 375 107 421 92 q 291 152 329 122 q 228 225 253 182 q 200 322 204 268 l 869 322 m 204 431 q 294 581 219 525 q 468 636 369 636 q 638 582 568 636 q 722 431 707 528 l 204 431 z "},"ì":{"ha":308,"x_min":-56,"x_max":238,"o":"m 126 821 l 238 821 l 118 1015 l -56 1015 l 126 821 m 85 0 l 224 0 l 224 728 l 85 728 l 85 0 z "},"í":{"ha":308,"x_min":71,"x_max":364,"o":"m 71 821 l 182 821 l 364 1015 l 190 1015 l 71 821 m 85 0 l 224 0 l 224 728 l 85 728 l 85 0 z "},"î":{"ha":308,"x_min":-100,"x_max":408,"o":"m 274 821 l 408 821 l 228 1015 l 81 1015 l -100 821 l 35 821 l 154 943 l 274 821 m 85 0 l 224 0 l 224 728 l 85 728 l 85 0 z "},"ï":{"ha":308,"x_min":-82,"x_max":390,"o":"m -82 833 l 57 833 l 57 978 l -82 978 l -82 833 m 251 833 l 390 833 l 390 978 l 251 978 l 251 833 m 85 0 l 224 0 l 224 728 l 85 728 l 85 0 z "},"ð":{"ha":950,"x_min":53,"x_max":897,"o":"m 750 364 q 735 264 750 313 q 687 176 719 215 q 601 115 654 138 q 475 92 547 92 q 349 115 403 92 q 263 176 296 138 q 215 264 231 215 q 200 364 200 313 q 215 464 200 415 q 264 551 231 513 q 350 613 297 590 q 475 636 403 636 q 601 613 547 636 q 687 551 654 590 q 735 464 719 513 q 750 364 750 415 m 196 842 l 251 792 l 431 871 q 646 690 557 797 l 643 688 q 457 753 572 753 q 299 723 374 753 q 170 640 225 693 q 84 516 115 588 q 53 364 53 444 q 79 213 53 283 q 159 90 106 143 q 292 6 213 36 q 475 -25 372 -25 q 789 86 681 -25 q 897 375 897 197 q 808 674 897 531 q 553 925 718 817 l 703 992 l 646 1042 l 481 968 q 307 1042 399 1011 l 211 964 q 351 911 283 942 l 196 842 z "},"ñ":{"ha":901,"x_min":85,"x_max":817,"o":"m 258 832 q 281 881 265 867 q 322 894 297 894 q 432 865 364 894 q 568 832 508 832 q 678 880 636 832 q 726 1003 719 928 l 644 1003 q 622 954 638 968 q 581 940 606 940 q 471 969 539 940 q 335 1003 394 1003 q 225 955 267 1003 q 176 832 183 907 l 258 832 m 85 0 l 224 0 l 224 419 q 293 579 224 522 q 463 636 363 636 q 625 593 572 636 q 678 468 678 550 l 678 0 l 817 0 l 817 496 q 733 690 817 626 q 511 753 650 753 q 348 721 424 753 q 226 618 272 689 l 224 618 l 224 728 l 85 728 l 85 0 z "},"ò":{"ha":950,"x_min":53,"x_max":897,"o":"m 447 821 l 558 821 l 439 1015 l 265 1015 l 447 821 m 53 364 q 79 213 53 283 q 159 90 106 143 q 292 6 213 36 q 475 -25 372 -25 q 658 6 579 -25 q 791 90 738 36 q 871 213 844 143 q 897 364 897 283 q 871 515 897 444 q 791 638 844 585 q 658 722 738 692 q 475 753 579 753 q 292 722 372 753 q 159 638 213 692 q 79 515 106 585 q 53 364 53 444 m 750 364 q 735 264 750 313 q 687 176 719 215 q 601 115 654 138 q 475 92 547 92 q 349 115 403 92 q 263 176 296 138 q 215 264 231 215 q 200 364 200 313 q 215 464 200 415 q 264 551 231 513 q 350 613 297 590 q 475 636 403 636 q 601 613 547 636 q 687 551 654 590 q 735 464 719 513 q 750 364 750 415 z "},"ó":{"ha":950,"x_min":53,"x_max":897,"o":"m 392 821 l 503 821 l 685 1015 l 511 1015 l 392 821 m 53 364 q 79 213 53 283 q 159 90 106 143 q 292 6 213 36 q 475 -25 372 -25 q 658 6 579 -25 q 791 90 738 36 q 871 213 844 143 q 897 364 897 283 q 871 515 897 444 q 791 638 844 585 q 658 722 738 692 q 475 753 579 753 q 292 722 372 753 q 159 638 213 692 q 79 515 106 585 q 53 364 53 444 m 750 364 q 735 264 750 313 q 687 176 719 215 q 601 115 654 138 q 475 92 547 92 q 349 115 403 92 q 263 176 296 138 q 215 264 231 215 q 200 364 200 313 q 215 464 200 415 q 264 551 231 513 q 350 613 297 590 q 475 636 403 636 q 601 613 547 636 q 687 551 654 590 q 735 464 719 513 q 750 364 750 415 z "},"ô":{"ha":950,"x_min":53,"x_max":897,"o":"m 594 821 l 729 821 l 549 1015 l 401 1015 l 221 821 l 356 821 l 475 943 l 594 821 m 53 364 q 79 213 53 283 q 159 90 106 143 q 292 6 213 36 q 475 -25 372 -25 q 658 6 579 -25 q 791 90 738 36 q 871 213 844 143 q 897 364 897 283 q 871 515 897 444 q 791 638 844 585 q 658 722 738 692 q 475 753 579 753 q 292 722 372 753 q 159 638 213 692 q 79 515 106 585 q 53 364 53 444 m 750 364 q 735 264 750 313 q 687 176 719 215 q 601 115 654 138 q 475 92 547 92 q 349 115 403 92 q 263 176 296 138 q 215 264 231 215 q 200 364 200 313 q 215 464 200 415 q 264 551 231 513 q 350 613 297 590 q 475 636 403 636 q 601 613 547 636 q 687 551 654 590 q 735 464 719 513 q 750 364 750 415 z "},"õ":{"ha":950,"x_min":53,"x_max":897,"o":"m 282 832 q 305 881 289 867 q 346 894 321 894 q 456 865 388 894 q 592 832 532 832 q 701 880 660 832 q 750 1003 743 928 l 668 1003 q 645 954 661 968 q 604 940 629 940 q 494 969 563 940 q 358 1003 418 1003 q 249 955 290 1003 q 200 832 207 907 l 282 832 m 53 364 q 79 213 53 283 q 159 90 106 143 q 292 6 213 36 q 475 -25 372 -25 q 658 6 579 -25 q 791 90 738 36 q 871 213 844 143 q 897 364 897 283 q 871 515 897 444 q 791 638 844 585 q 658 722 738 692 q 475 753 579 753 q 292 722 372 753 q 159 638 213 692 q 79 515 106 585 q 53 364 53 444 m 750 364 q 735 264 750 313 q 687 176 719 215 q 601 115 654 138 q 475 92 547 92 q 349 115 403 92 q 263 176 296 138 q 215 264 231 215 q 200 364 200 313 q 215 464 200 415 q 264 551 231 513 q 350 613 297 590 q 475 636 403 636 q 601 613 547 636 q 687 551 654 590 q 735 464 719 513 q 750 364 750 415 z "},"ö":{"ha":950,"x_min":53,"x_max":897,"o":"m 239 833 l 378 833 l 378 978 l 239 978 l 239 833 m 572 833 l 711 833 l 711 978 l 572 978 l 572 833 m 53 364 q 79 213 53 283 q 159 90 106 143 q 292 6 213 36 q 475 -25 372 -25 q 658 6 579 -25 q 791 90 738 36 q 871 213 844 143 q 897 364 897 283 q 871 515 897 444 q 791 638 844 585 q 658 722 738 692 q 475 753 579 753 q 292 722 372 753 q 159 638 213 692 q 79 515 106 585 q 53 364 53 444 m 750 364 q 735 264 750 313 q 687 176 719 215 q 601 115 654 138 q 475 92 547 92 q 349 115 403 92 q 263 176 296 138 q 215 264 231 215 q 200 364 200 313 q 215 464 200 415 q 264 551 231 513 q 350 613 297 590 q 475 636 403 636 q 601 613 547 636 q 687 551 654 590 q 735 464 719 513 q 750 364 750 415 z "},"÷":{"ha":833,"x_min":65,"x_max":768,"o":"m 319 639 q 349 571 319 600 q 417 542 378 542 q 485 571 456 542 q 514 639 514 600 q 485 707 514 678 q 417 736 456 736 q 349 707 378 736 q 319 639 319 678 m 319 64 q 349 -4 319 25 q 417 -33 378 -33 q 485 -4 456 -33 q 514 64 514 25 q 485 132 514 103 q 417 161 456 161 q 349 132 378 161 q 319 64 319 103 m 65 293 l 768 293 l 768 410 l 65 410 l 65 293 z "},"ø":{"ha":950,"x_min":53,"x_max":897,"o":"m 700 533 q 738 455 725 499 q 750 364 750 411 q 735 264 750 313 q 687 176 719 215 q 601 115 654 138 q 475 92 547 92 q 290 151 360 92 l 700 533 m 250 194 q 213 273 225 229 q 200 364 200 317 q 215 464 200 415 q 264 551 231 513 q 350 613 297 590 q 475 636 403 636 q 660 576 589 636 l 250 194 m 757 667 q 475 753 647 753 q 292 722 372 753 q 159 638 213 692 q 79 515 106 585 q 53 364 53 444 q 77 220 53 288 q 150 101 101 153 l 53 11 l 93 -32 l 193 61 q 475 -25 299 -25 q 658 6 579 -25 q 791 90 738 36 q 871 213 844 143 q 897 364 897 283 q 873 508 897 440 q 801 628 849 576 l 897 717 l 857 760 l 757 667 z "},"ù":{"ha":901,"x_min":85,"x_max":817,"o":"m 424 821 l 535 821 l 415 1015 l 242 1015 l 424 821 m 817 728 l 678 728 l 678 308 q 608 149 678 206 q 439 92 539 92 q 276 135 329 92 q 224 260 224 178 l 224 728 l 85 728 l 85 232 q 168 38 85 101 q 390 -25 251 -25 q 553 7 478 -25 q 675 110 629 39 l 678 110 l 678 0 l 817 0 l 817 728 z "},"ú":{"ha":901,"x_min":85,"x_max":817,"o":"m 368 821 l 479 821 l 661 1015 l 488 1015 l 368 821 m 817 728 l 678 728 l 678 308 q 608 149 678 206 q 439 92 539 92 q 276 135 329 92 q 224 260 224 178 l 224 728 l 85 728 l 85 232 q 168 38 85 101 q 390 -25 251 -25 q 553 7 478 -25 q 675 110 629 39 l 678 110 l 678 0 l 817 0 l 817 728 z "},"û":{"ha":901,"x_min":85,"x_max":817,"o":"m 571 821 l 706 821 l 525 1015 l 378 1015 l 197 821 l 332 821 l 451 943 l 571 821 m 817 728 l 678 728 l 678 308 q 608 149 678 206 q 439 92 539 92 q 276 135 329 92 q 224 260 224 178 l 224 728 l 85 728 l 85 232 q 168 38 85 101 q 390 -25 251 -25 q 553 7 478 -25 q 675 110 629 39 l 678 110 l 678 0 l 817 0 l 817 728 z "},"ü":{"ha":901,"x_min":85,"x_max":817,"o":"m 215 833 l 354 833 l 354 978 l 215 978 l 215 833 m 549 833 l 688 833 l 688 978 l 549 978 l 549 833 m 817 728 l 678 728 l 678 308 q 608 149 678 206 q 439 92 539 92 q 276 135 329 92 q 224 260 224 178 l 224 728 l 85 728 l 85 232 q 168 38 85 101 q 390 -25 251 -25 q 553 7 478 -25 q 675 110 629 39 l 678 110 l 678 0 l 817 0 l 817 728 z "},"ý":{"ha":797,"x_min":-7,"x_max":804,"o":"m 315 821 l 426 821 l 608 1015 l 435 1015 l 315 821 m 403 153 l 153 728 l -7 728 l 329 -11 l 297 -78 q 266 -137 279 -117 q 238 -168 253 -157 q 201 -184 222 -179 q 146 -189 179 -189 q 93 -186 125 -189 q 65 -183 76 -185 l 65 -300 l 69 -300 q 171 -306 139 -306 q 257 -299 222 -306 q 320 -273 292 -292 q 373 -218 349 -254 q 424 -125 397 -182 l 804 728 l 649 728 l 403 153 z "},"þ":{"ha":951,"x_min":85,"x_max":899,"o":"m 85 -281 l 224 -281 l 224 93 l 226 93 q 342 6 267 36 q 503 -25 418 -25 q 658 1 586 -25 q 783 76 729 26 q 868 199 838 126 q 899 360 899 271 q 868 522 899 450 q 783 643 838 593 q 658 719 729 693 q 503 744 586 744 q 342 713 419 744 q 226 626 265 682 l 224 626 l 224 1000 l 85 1000 l 85 -281 m 751 360 q 679 164 751 236 q 485 92 607 92 q 289 164 363 92 q 215 360 215 236 q 231 461 215 413 q 281 547 247 510 q 365 606 314 585 q 485 628 417 628 q 603 606 553 628 q 687 547 654 585 q 735 461 719 508 q 751 360 751 414 z "},"ÿ":{"ha":797,"x_min":-7,"x_max":804,"o":"m 163 833 l 301 833 l 301 978 l 163 978 l 163 833 m 496 833 l 635 833 l 635 978 l 496 978 l 496 833 m 403 153 l 153 728 l -7 728 l 329 -11 l 297 -78 q 266 -137 279 -117 q 238 -168 253 -157 q 201 -184 222 -179 q 146 -189 179 -189 q 93 -186 125 -189 q 65 -183 76 -185 l 65 -300 l 69 -300 q 171 -306 139 -306 q 257 -299 222 -306 q 320 -273 292 -292 q 373 -218 349 -254 q 424 -125 397 -182 l 804 728 l 649 728 l 403 153 z "}}}
